<?xml version="1.0" encoding="UTF-8" standalone="no"?><svg xmlns="http://www.w3.org/2000/svg" xmlns:xlink="http://www.w3.org/1999/xlink" contentStyleType="text/css" height="288px" preserveAspectRatio="none" style="width:731px;height:288px;background:#FFFFFF;" version="1.1" viewBox="0 0 731 288" width="731px" zoomAndPan="magnify"><defs/><g><!--MD5=[86fcfc7a3ddeef2443f03e9b03bcacd4]
class patient--><g id="elem_patient"><rect codeLine="4" fill="#F1F1F1" height="32" id="patient" rx="2.5" ry="2.5" style="stroke:#181818;stroke-width:0.5;" width="163" x="7" y="133.5"/><ellipse cx="22" cy="149.5" fill="#ADD1B2" rx="11" ry="11" style="stroke:#181818;stroke-width:1.0;"/><path d="M24.7656,145.375 Q24.9219,145.1563 25.1094,145.0469 Q25.2969,144.9375 25.5156,144.9375 Q25.8906,144.9375 26.125,145.2031 Q26.3594,145.4531 26.3594,146.0625 L26.3594,147.5156 Q26.3594,148.125 26.125,148.3906 Q25.8906,148.6563 25.5156,148.6563 Q25.1719,148.6563 24.9688,148.4531 Q24.7656,148.2656 24.6563,147.75 Q24.6094,147.3906 24.4219,147.2031 Q24.0938,146.8281 23.4844,146.6094 Q22.875,146.3906 22.25,146.3906 Q21.4844,146.3906 20.8438,146.7188 Q20.2188,147.0469 19.7188,147.7969 Q19.2344,148.5469 19.2344,149.5781 L19.2344,150.6719 Q19.2344,151.9063 20.125,152.7344 Q21.0156,153.5469 22.6094,153.5469 Q23.5469,153.5469 24.2031,153.2969 Q24.5938,153.1406 25.0156,152.7031 Q25.2813,152.4375 25.4219,152.3594 Q25.5781,152.2813 25.7813,152.2813 Q26.1094,152.2813 26.3594,152.5469 Q26.625,152.7969 26.625,153.1406 Q26.625,153.4844 26.2813,153.8906 Q25.7813,154.4688 24.9844,154.7969 Q23.9063,155.25 22.6094,155.25 Q21.0938,155.25 19.8906,154.625 Q18.9063,154.125 18.2188,153.0625 Q17.5313,151.9844 17.5313,150.7031 L17.5313,149.5469 Q17.5313,148.2188 18.1406,147.0781 Q18.7656,145.9219 19.8594,145.3125 Q20.9531,144.6875 22.1875,144.6875 Q22.9219,144.6875 23.5625,144.8594 Q24.2188,145.0156 24.7656,145.375 Z " fill="#000000"/><text fill="#000000" font-family="sans-serif" font-size="14" lengthAdjust="spacing" textLength="131" x="36" y="155.2285">MedComCorePatient</text></g><!--MD5=[d64d5c7357c79f774106f79272da7625]
class organization--><g id="elem_organization"><rect codeLine="5" fill="#F1F1F1" height="32" id="organization" rx="2.5" ry="2.5" style="stroke:#181818;stroke-width:0.5;" width="226" x="156.5" y="249"/><ellipse cx="171.5" cy="265" fill="#ADD1B2" rx="11" ry="11" style="stroke:#181818;stroke-width:1.0;"/><path d="M174.2656,260.875 Q174.4219,260.6563 174.6094,260.5469 Q174.7969,260.4375 175.0156,260.4375 Q175.3906,260.4375 175.625,260.7031 Q175.8594,260.9531 175.8594,261.5625 L175.8594,263.0156 Q175.8594,263.625 175.625,263.8906 Q175.3906,264.1563 175.0156,264.1563 Q174.6719,264.1563 174.4688,263.9531 Q174.2656,263.7656 174.1563,263.25 Q174.1094,262.8906 173.9219,262.7031 Q173.5938,262.3281 172.9844,262.1094 Q172.375,261.8906 171.75,261.8906 Q170.9844,261.8906 170.3438,262.2188 Q169.7188,262.5469 169.2188,263.2969 Q168.7344,264.0469 168.7344,265.0781 L168.7344,266.1719 Q168.7344,267.4063 169.625,268.2344 Q170.5156,269.0469 172.1094,269.0469 Q173.0469,269.0469 173.7031,268.7969 Q174.0938,268.6406 174.5156,268.2031 Q174.7813,267.9375 174.9219,267.8594 Q175.0781,267.7813 175.2813,267.7813 Q175.6094,267.7813 175.8594,268.0469 Q176.125,268.2969 176.125,268.6406 Q176.125,268.9844 175.7813,269.3906 Q175.2813,269.9688 174.4844,270.2969 Q173.4063,270.75 172.1094,270.75 Q170.5938,270.75 169.3906,270.125 Q168.4063,269.625 167.7188,268.5625 Q167.0313,267.4844 167.0313,266.2031 L167.0313,265.0469 Q167.0313,263.7188 167.6406,262.5781 Q168.2656,261.4219 169.3594,260.8125 Q170.4531,260.1875 171.6875,260.1875 Q172.4219,260.1875 173.0625,260.3594 Q173.7188,260.5156 174.2656,260.875 Z " fill="#000000"/><text fill="#000000" font-family="sans-serif" font-size="14" lengthAdjust="spacing" textLength="194" x="185.5" y="270.7285">MedComProducerOrganization</text></g><!--MD5=[e983e22c3f4ba1480d19570c62e75e9c]
class diagnosticReport--><g id="elem_diagnosticReport"><rect codeLine="6" fill="#F1F1F1" height="42.7031" id="diagnosticReport" rx="2.5" ry="2.5" style="stroke:#181818;stroke-width:0.5;" width="264" x="174.5" y="7"/><ellipse cx="189.5" cy="28.3516" fill="#ADD1B2" rx="11" ry="11" style="stroke:#181818;stroke-width:1.0;"/><path d="M192.2656,24.2266 Q192.4219,24.0078 192.6094,23.8984 Q192.7969,23.7891 193.0156,23.7891 Q193.3906,23.7891 193.625,24.0547 Q193.8594,24.3047 193.8594,24.9141 L193.8594,26.3672 Q193.8594,26.9766 193.625,27.2422 Q193.3906,27.5078 193.0156,27.5078 Q192.6719,27.5078 192.4688,27.3047 Q192.2656,27.1172 192.1563,26.6016 Q192.1094,26.2422 191.9219,26.0547 Q191.5938,25.6797 190.9844,25.4609 Q190.375,25.2422 189.75,25.2422 Q188.9844,25.2422 188.3438,25.5703 Q187.7188,25.8984 187.2188,26.6484 Q186.7344,27.3984 186.7344,28.4297 L186.7344,29.5234 Q186.7344,30.7578 187.625,31.5859 Q188.5156,32.3984 190.1094,32.3984 Q191.0469,32.3984 191.7031,32.1484 Q192.0938,31.9922 192.5156,31.5547 Q192.7813,31.2891 192.9219,31.2109 Q193.0781,31.1328 193.2813,31.1328 Q193.6094,31.1328 193.8594,31.3984 Q194.125,31.6484 194.125,31.9922 Q194.125,32.3359 193.7813,32.7422 Q193.2813,33.3203 192.4844,33.6484 Q191.4063,34.1016 190.1094,34.1016 Q188.5938,34.1016 187.3906,33.4766 Q186.4063,32.9766 185.7188,31.9141 Q185.0313,30.8359 185.0313,29.5547 L185.0313,28.3984 Q185.0313,27.0703 185.6406,25.9297 Q186.2656,24.7734 187.3594,24.1641 Q188.4531,23.5391 189.6875,23.5391 Q190.4219,23.5391 191.0625,23.7109 Q191.7188,23.8672 192.2656,24.2266 Z " fill="#000000"/><text fill="#000000" font-family="sans-serif" font-size="12" font-style="italic" lengthAdjust="spacing" textLength="186" x="226.5" y="24.457">«MedComCoreDiagnosticReport»</text><text fill="#000000" font-family="sans-serif" font-size="14" lengthAdjust="spacing" textLength="232" x="203.5" y="41.627">MedComHomeCareDiagnosticReport</text></g><!--MD5=[a96585abe38044d07723f840ff465c16]
class coreobservation--><g id="elem_coreobservation"><rect codeLine="7" fill="#F1F1F1" height="42.7031" id="coreobservation" rx="2.5" ry="2.5" style="stroke:#181818;stroke-width:0.5;" width="232" x="331.5" y="128"/><ellipse cx="346.5" cy="149.3516" fill="#ADD1B2" rx="11" ry="11" style="stroke:#181818;stroke-width:1.0;"/><path d="M349.2656,145.2266 Q349.4219,145.0078 349.6094,144.8984 Q349.7969,144.7891 350.0156,144.7891 Q350.3906,144.7891 350.625,145.0547 Q350.8594,145.3047 350.8594,145.9141 L350.8594,147.3672 Q350.8594,147.9766 350.625,148.2422 Q350.3906,148.5078 350.0156,148.5078 Q349.6719,148.5078 349.4688,148.3047 Q349.2656,148.1172 349.1563,147.6016 Q349.1094,147.2422 348.9219,147.0547 Q348.5938,146.6797 347.9844,146.4609 Q347.375,146.2422 346.75,146.2422 Q345.9844,146.2422 345.3438,146.5703 Q344.7188,146.8984 344.2188,147.6484 Q343.7344,148.3984 343.7344,149.4297 L343.7344,150.5234 Q343.7344,151.7578 344.625,152.5859 Q345.5156,153.3984 347.1094,153.3984 Q348.0469,153.3984 348.7031,153.1484 Q349.0938,152.9922 349.5156,152.5547 Q349.7813,152.2891 349.9219,152.2109 Q350.0781,152.1328 350.2813,152.1328 Q350.6094,152.1328 350.8594,152.3984 Q351.125,152.6484 351.125,152.9922 Q351.125,153.3359 350.7813,153.7422 Q350.2813,154.3203 349.4844,154.6484 Q348.4063,155.1016 347.1094,155.1016 Q345.5938,155.1016 344.3906,154.4766 Q343.4063,153.9766 342.7188,152.9141 Q342.0313,151.8359 342.0313,150.5547 L342.0313,149.3984 Q342.0313,148.0703 342.6406,146.9297 Q343.2656,145.7734 344.3594,145.1641 Q345.4531,144.5391 346.6875,144.5391 Q347.4219,144.5391 348.0625,144.7109 Q348.7188,144.8672 349.2656,145.2266 Z " fill="#000000"/><text fill="#000000" font-family="sans-serif" font-size="12" font-style="italic" lengthAdjust="spacing" textLength="158" x="381.5" y="145.457">«MedComCoreObservation»</text><text fill="#000000" font-family="sans-serif" font-size="14" lengthAdjust="spacing" textLength="200" x="360.5" y="162.627">MedComHomeCareObservation</text></g><!--MD5=[aa898b20e385a7003938c33fd5d2e29b]
class media--><g id="elem_media"><rect codeLine="8" fill="#F1F1F1" height="32" id="media" rx="2.5" ry="2.5" style="stroke:#181818;stroke-width:0.5;" width="126" x="598.5" y="133.5"/><ellipse cx="613.5" cy="149.5" fill="#ADD1B2" rx="11" ry="11" style="stroke:#181818;stroke-width:1.0;"/><path d="M616.2656,145.375 Q616.4219,145.1563 616.6094,145.0469 Q616.7969,144.9375 617.0156,144.9375 Q617.3906,144.9375 617.625,145.2031 Q617.8594,145.4531 617.8594,146.0625 L617.8594,147.5156 Q617.8594,148.125 617.625,148.3906 Q617.3906,148.6563 617.0156,148.6563 Q616.6719,148.6563 616.4688,148.4531 Q616.2656,148.2656 616.1563,147.75 Q616.1094,147.3906 615.9219,147.2031 Q615.5938,146.8281 614.9844,146.6094 Q614.375,146.3906 613.75,146.3906 Q612.9844,146.3906 612.3438,146.7188 Q611.7188,147.0469 611.2188,147.7969 Q610.7344,148.5469 610.7344,149.5781 L610.7344,150.6719 Q610.7344,151.9063 611.625,152.7344 Q612.5156,153.5469 614.1094,153.5469 Q615.0469,153.5469 615.7031,153.2969 Q616.0938,153.1406 616.5156,152.7031 Q616.7813,152.4375 616.9219,152.3594 Q617.0781,152.2813 617.2813,152.2813 Q617.6094,152.2813 617.8594,152.5469 Q618.125,152.7969 618.125,153.1406 Q618.125,153.4844 617.7813,153.8906 Q617.2813,154.4688 616.4844,154.7969 Q615.4063,155.25 614.1094,155.25 Q612.5938,155.25 611.3906,154.625 Q610.4063,154.125 609.7188,153.0625 Q609.0313,151.9844 609.0313,150.7031 L609.0313,149.5469 Q609.0313,148.2188 609.6406,147.0781 Q610.2656,145.9219 611.3594,145.3125 Q612.4531,144.6875 613.6875,144.6875 Q614.4219,144.6875 615.0625,144.8594 Q615.7188,145.0156 616.2656,145.375 Z " fill="#000000"/><text fill="#000000" font-family="sans-serif" font-size="14" lengthAdjust="spacing" textLength="94" x="627.5" y="155.2285">MedComMedia</text></g><!--MD5=[3693126f5e4882afa6398591cd5ccdc9]
link diagnosticReport to patient--><g id="link_diagnosticReport_patient"><path codeLine="10" d="M237.34,50.05 C215.26,57.94 191.2,67.99 170.5,80 C146.69,93.82 122.92,114.64 107.16,129.7 " fill="none" id="diagnosticReport-to-patient" style="stroke:#181818;stroke-width:1.0;"/><polygon fill="#181818" points="103.32,133.39,112.5751,130.0222,106.9192,129.9193,107.0221,124.2634,103.32,133.39" style="stroke:#181818;stroke-width:1.0;"/><text fill="#000000" font-family="sans-serif" font-size="13" lengthAdjust="spacing" textLength="42" x="171.5" y="94.4951">subject</text></g><!--MD5=[47496e079e743b6704f8ffb47327a521]
link diagnosticReport to organization--><g id="link_diagnosticReport_organization"><path codeLine="11" d="M292.57,50.31 C280.59,69.54 264.23,99.37 257.5,128 C248.04,168.24 257.04,216.76 263.73,243.61 " fill="none" id="diagnosticReport-to-organization" style="stroke:#181818;stroke-width:1.0;"/><polygon fill="#181818" points="265.04,248.68,266.6772,238.9682,263.7971,243.8369,258.9283,240.9568,265.04,248.68" style="stroke:#181818;stroke-width:1.0;"/><text fill="#000000" font-family="sans-serif" font-size="13" lengthAdjust="spacing" textLength="54" x="258.5" y="154.9951">performer</text></g><!--MD5=[1f197c178a815dc5a1dfbb48fdfadc47]
link diagnosticReport to coreobservation--><g id="link_diagnosticReport_coreobservation"><path codeLine="12" d="M331.06,50.23 C355.48,70.83 392.91,102.43 418.71,124.2 " fill="none" id="diagnosticReport-to-coreobservation" style="stroke:#181818;stroke-width:1.0;"/><polygon fill="#181818" points="422.75,127.61,418.4648,118.7423,418.9336,124.3796,413.2962,124.8485,422.75,127.61" style="stroke:#181818;stroke-width:1.0;"/><text fill="#000000" font-family="sans-serif" font-size="13" lengthAdjust="spacing" textLength="32" x="386.5" y="94.4951">result</text></g><!--MD5=[4fa38e8dd9333e36d2da3b18b4be9862]
link diagnosticReport to media--><g id="link_diagnosticReport_media"><path codeLine="13" d="M367.93,50.09 C436.98,73.24 547.75,110.37 611.66,131.79 " fill="none" id="diagnosticReport-to-media" style="stroke:#181818;stroke-width:1.0;"/><polygon fill="#181818" points="616.55,133.43,609.2888,126.7761,611.8095,131.8403,606.7452,134.3609,616.55,133.43" style="stroke:#181818;stroke-width:1.0;"/><text fill="#000000" font-family="sans-serif" font-size="13" lengthAdjust="spacing" textLength="35" x="506.5" y="94.4951">media</text></g><!--MD5=[c1b5b919a9c1cbeb103e231fc0557f2f]
link coreobservation to organization--><g id="link_coreobservation_organization"><path codeLine="14" d="M415.27,171.05 C381.75,192.43 329.8,225.55 297.81,245.95 " fill="none" id="coreobservation-to-organization" style="stroke:#181818;stroke-width:1.0;"/><polygon fill="#181818" points="293.24,248.86,302.9795,247.3964,297.4565,246.1728,298.6801,240.6499,293.24,248.86" style="stroke:#181818;stroke-width:1.0;"/><text fill="#000000" font-family="sans-serif" font-size="13" lengthAdjust="spacing" textLength="54" x="365.5" y="215.4951">performer</text></g><!--MD5=[d39f8504edd458e37f9f869bd0045d64]
@startuml HomeCareObsProfile
hide empty members
top to bottom direction

class "MedComCorePatient" as patient
class "MedComProducerOrganization" as organization 
class "MedComHomeCareDiagnosticReport" as diagnosticReport <<MedComCoreDiagnosticReport>>
class "MedComHomeCareObservation" as coreobservation <<MedComCoreObservation>>
class "MedComMedia" as media 

diagnosticReport - -> patient : "subject"
diagnosticReport - -> organization: "performer"
diagnosticReport - -> coreobservation : "result"
diagnosticReport - -> media : "media"
coreobservation - -> organization:"performer"



@enduml

PlantUML version 1.2022.7(Mon Aug 22 19:01:30 CEST 2022)
(GPL source distribution)
Java Runtime: Java(TM) SE Runtime Environment
JVM: Java HotSpot(TM) 64-Bit Server VM
Default Encoding: Cp1252
Language: da
Country: DK
--></g></svg>