<?xml version="1.0" encoding="us-ascii" standalone="no"?><svg xmlns="http://www.w3.org/2000/svg" xmlns:xlink="http://www.w3.org/1999/xlink" contentStyleType="text/css" height="528px" preserveAspectRatio="none" style="width:969px;height:528px;background:#FFFFFF;" version="1.1" viewBox="0 0 969 528" width="969px" zoomAndPan="magnify"><defs/><g><!--class document--><g id="elem_document"><rect codeLine="4" fill="#F1F1F1" height="42.7031" id="document" rx="2.5" ry="2.5" style="stroke:#181818;stroke-width:0.5;" width="196" x="536" y="7"/><ellipse cx="551" cy="28.3516" fill="#ADD1B2" rx="11" ry="11" style="stroke:#181818;stroke-width:1.0;"/><path d="M553.7656,24.2266 Q553.9219,24.0078 554.1094,23.8984 Q554.2969,23.7891 554.5156,23.7891 Q554.8906,23.7891 555.125,24.0547 Q555.3594,24.3047 555.3594,24.9141 L555.3594,26.3672 Q555.3594,26.9766 555.125,27.2422 Q554.8906,27.5078 554.5156,27.5078 Q554.1719,27.5078 553.9688,27.3047 Q553.7656,27.1172 553.6563,26.6016 Q553.6094,26.2422 553.4219,26.0547 Q553.0938,25.6797 552.4844,25.4609 Q551.875,25.2422 551.25,25.2422 Q550.4844,25.2422 549.8438,25.5703 Q549.2188,25.8984 548.7188,26.6484 Q548.2344,27.3984 548.2344,28.4297 L548.2344,29.5234 Q548.2344,30.7578 549.125,31.5859 Q550.0156,32.3984 551.6094,32.3984 Q552.5469,32.3984 553.2031,32.1484 Q553.5938,31.9922 554.0156,31.5547 Q554.2813,31.2891 554.4219,31.2109 Q554.5781,31.1328 554.7813,31.1328 Q555.1094,31.1328 555.3594,31.3984 Q555.625,31.6484 555.625,31.9922 Q555.625,32.3359 555.2813,32.7422 Q554.7813,33.3203 553.9844,33.6484 Q552.9063,34.1016 551.6094,34.1016 Q550.0938,34.1016 548.8906,33.4766 Q547.9063,32.9766 547.2188,31.9141 Q546.5313,30.8359 546.5313,29.5547 L546.5313,28.3984 Q546.5313,27.0703 547.1406,25.9297 Q547.7656,24.7734 548.8594,24.1641 Q549.9531,23.5391 551.1875,23.5391 Q551.9219,23.5391 552.5625,23.7109 Q553.2188,23.8672 553.7656,24.2266 Z " fill="#000000"/><text fill="#000000" font-family="sans-serif" font-size="12" font-style="italic" lengthAdjust="spacing" textLength="53" x="620.5" y="24.457">&#171;Bundle&#187;</text><text fill="#000000" font-family="sans-serif" font-size="14" lengthAdjust="spacing" textLength="164" x="565" y="41.627">MedComDocumentBundle</text></g><!--class composition--><g id="elem_composition"><rect codeLine="5" fill="#F1F1F1" height="42.7031" id="composition" rx="2.5" ry="2.5" style="stroke:#181818;stroke-width:0.5;" width="230" x="519" y="128"/><ellipse cx="534" cy="149.3516" fill="#ADD1B2" rx="11" ry="11" style="stroke:#181818;stroke-width:1.0;"/><path d="M536.7656,145.2266 Q536.9219,145.0078 537.1094,144.8984 Q537.2969,144.7891 537.5156,144.7891 Q537.8906,144.7891 538.125,145.0547 Q538.3594,145.3047 538.3594,145.9141 L538.3594,147.3672 Q538.3594,147.9766 538.125,148.2422 Q537.8906,148.5078 537.5156,148.5078 Q537.1719,148.5078 536.9688,148.3047 Q536.7656,148.1172 536.6563,147.6016 Q536.6094,147.2422 536.4219,147.0547 Q536.0938,146.6797 535.4844,146.4609 Q534.875,146.2422 534.25,146.2422 Q533.4844,146.2422 532.8438,146.5703 Q532.2188,146.8984 531.7188,147.6484 Q531.2344,148.3984 531.2344,149.4297 L531.2344,150.5234 Q531.2344,151.7578 532.125,152.5859 Q533.0156,153.3984 534.6094,153.3984 Q535.5469,153.3984 536.2031,153.1484 Q536.5938,152.9922 537.0156,152.5547 Q537.2813,152.2891 537.4219,152.2109 Q537.5781,152.1328 537.7813,152.1328 Q538.1094,152.1328 538.3594,152.3984 Q538.625,152.6484 538.625,152.9922 Q538.625,153.3359 538.2813,153.7422 Q537.7813,154.3203 536.9844,154.6484 Q535.9063,155.1016 534.6094,155.1016 Q533.0938,155.1016 531.8906,154.4766 Q530.9063,153.9766 530.2188,152.9141 Q529.5313,151.8359 529.5313,150.5547 L529.5313,149.3984 Q529.5313,148.0703 530.1406,146.9297 Q530.7656,145.7734 531.8594,145.1641 Q532.9531,144.5391 534.1875,144.5391 Q534.9219,144.5391 535.5625,144.7109 Q536.2188,144.8672 536.7656,145.2266 Z " fill="#000000"/><text fill="#000000" font-family="sans-serif" font-size="12" font-style="italic" lengthAdjust="spacing" textLength="84" x="605" y="145.457">&#171;Composition&#187;</text><text fill="#000000" font-family="sans-serif" font-size="14" lengthAdjust="spacing" textLength="198" x="548" y="162.627">MedComDocumentComposition</text></g><!--class organization--><g id="elem_organization"><rect codeLine="7" fill="#F1F1F1" height="42.7031" id="organization" rx="2.5" ry="2.5" style="stroke:#181818;stroke-width:0.5;" width="232" x="7" y="480"/><ellipse cx="22" cy="501.3516" fill="#ADD1B2" rx="11" ry="11" style="stroke:#181818;stroke-width:1.0;"/><path d="M24.7656,497.2266 Q24.9219,497.0078 25.1094,496.8984 Q25.2969,496.7891 25.5156,496.7891 Q25.8906,496.7891 26.125,497.0547 Q26.3594,497.3047 26.3594,497.9141 L26.3594,499.3672 Q26.3594,499.9766 26.125,500.2422 Q25.8906,500.5078 25.5156,500.5078 Q25.1719,500.5078 24.9688,500.3047 Q24.7656,500.1172 24.6563,499.6016 Q24.6094,499.2422 24.4219,499.0547 Q24.0938,498.6797 23.4844,498.4609 Q22.875,498.2422 22.25,498.2422 Q21.4844,498.2422 20.8438,498.5703 Q20.2188,498.8984 19.7188,499.6484 Q19.2344,500.3984 19.2344,501.4297 L19.2344,502.5234 Q19.2344,503.7578 20.125,504.5859 Q21.0156,505.3984 22.6094,505.3984 Q23.5469,505.3984 24.2031,505.1484 Q24.5938,504.9922 25.0156,504.5547 Q25.2813,504.2891 25.4219,504.2109 Q25.5781,504.1328 25.7813,504.1328 Q26.1094,504.1328 26.3594,504.3984 Q26.625,504.6484 26.625,504.9922 Q26.625,505.3359 26.2813,505.7422 Q25.7813,506.3203 24.9844,506.6484 Q23.9063,507.1016 22.6094,507.1016 Q21.0938,507.1016 19.8906,506.4766 Q18.9063,505.9766 18.2188,504.9141 Q17.5313,503.8359 17.5313,502.5547 L17.5313,501.3984 Q17.5313,500.0703 18.1406,498.9297 Q18.7656,497.7734 19.8594,497.1641 Q20.9531,496.5391 22.1875,496.5391 Q22.9219,496.5391 23.5625,496.7109 Q24.2188,496.8672 24.7656,497.2266 Z " fill="#000000"/><text fill="#000000" font-family="sans-serif" font-size="12" font-style="italic" lengthAdjust="spacing" textLength="162" x="55" y="497.457">&#171;MedComCoreOrganization&#187;</text><text fill="#000000" font-family="sans-serif" font-size="14" lengthAdjust="spacing" textLength="200" x="36" y="514.627">MedComDocumentOrganization</text></g><!--class practitioner--><g id="elem_practitioner"><rect codeLine="8" fill="#F1F1F1" height="42.7031" id="practitioner" rx="2.5" ry="2.5" style="stroke:#181818;stroke-width:0.5;" width="224" x="438" y="480"/><ellipse cx="453" cy="501.3516" fill="#ADD1B2" rx="11" ry="11" style="stroke:#181818;stroke-width:1.0;"/><path d="M455.7656,497.2266 Q455.9219,497.0078 456.1094,496.8984 Q456.2969,496.7891 456.5156,496.7891 Q456.8906,496.7891 457.125,497.0547 Q457.3594,497.3047 457.3594,497.9141 L457.3594,499.3672 Q457.3594,499.9766 457.125,500.2422 Q456.8906,500.5078 456.5156,500.5078 Q456.1719,500.5078 455.9688,500.3047 Q455.7656,500.1172 455.6563,499.6016 Q455.6094,499.2422 455.4219,499.0547 Q455.0938,498.6797 454.4844,498.4609 Q453.875,498.2422 453.25,498.2422 Q452.4844,498.2422 451.8438,498.5703 Q451.2188,498.8984 450.7188,499.6484 Q450.2344,500.3984 450.2344,501.4297 L450.2344,502.5234 Q450.2344,503.7578 451.125,504.5859 Q452.0156,505.3984 453.6094,505.3984 Q454.5469,505.3984 455.2031,505.1484 Q455.5938,504.9922 456.0156,504.5547 Q456.2813,504.2891 456.4219,504.2109 Q456.5781,504.1328 456.7813,504.1328 Q457.1094,504.1328 457.3594,504.3984 Q457.625,504.6484 457.625,504.9922 Q457.625,505.3359 457.2813,505.7422 Q456.7813,506.3203 455.9844,506.6484 Q454.9063,507.1016 453.6094,507.1016 Q452.0938,507.1016 450.8906,506.4766 Q449.9063,505.9766 449.2188,504.9141 Q448.5313,503.8359 448.5313,502.5547 L448.5313,501.3984 Q448.5313,500.0703 449.1406,498.9297 Q449.7656,497.7734 450.8594,497.1641 Q451.9531,496.5391 453.1875,496.5391 Q453.9219,496.5391 454.5625,496.7109 Q455.2188,496.8672 455.7656,497.2266 Z " fill="#000000"/><text fill="#000000" font-family="sans-serif" font-size="12" font-style="italic" lengthAdjust="spacing" textLength="153" x="486.5" y="497.457">&#171;MedComCorePractitioner&#187;</text><text fill="#000000" font-family="sans-serif" font-size="14" lengthAdjust="spacing" textLength="192" x="467" y="514.627">MedComDocumentPractitioner</text></g><!--class practitionerrole--><g id="elem_practitionerrole"><rect codeLine="9" fill="#F1F1F1" height="42.7031" id="practitionerrole" rx="2.5" ry="2.5" style="stroke:#181818;stroke-width:0.5;" width="253" x="86.5" y="359"/><ellipse cx="101.5" cy="380.3516" fill="#ADD1B2" rx="11" ry="11" style="stroke:#181818;stroke-width:1.0;"/><path d="M104.2656,376.2266 Q104.4219,376.0078 104.6094,375.8984 Q104.7969,375.7891 105.0156,375.7891 Q105.3906,375.7891 105.625,376.0547 Q105.8594,376.3047 105.8594,376.9141 L105.8594,378.3672 Q105.8594,378.9766 105.625,379.2422 Q105.3906,379.5078 105.0156,379.5078 Q104.6719,379.5078 104.4688,379.3047 Q104.2656,379.1172 104.1563,378.6016 Q104.1094,378.2422 103.9219,378.0547 Q103.5938,377.6797 102.9844,377.4609 Q102.375,377.2422 101.75,377.2422 Q100.9844,377.2422 100.3438,377.5703 Q99.7188,377.8984 99.2188,378.6484 Q98.7344,379.3984 98.7344,380.4297 L98.7344,381.5234 Q98.7344,382.7578 99.625,383.5859 Q100.5156,384.3984 102.1094,384.3984 Q103.0469,384.3984 103.7031,384.1484 Q104.0938,383.9922 104.5156,383.5547 Q104.7813,383.2891 104.9219,383.2109 Q105.0781,383.1328 105.2813,383.1328 Q105.6094,383.1328 105.8594,383.3984 Q106.125,383.6484 106.125,383.9922 Q106.125,384.3359 105.7813,384.7422 Q105.2813,385.3203 104.4844,385.6484 Q103.4063,386.1016 102.1094,386.1016 Q100.5938,386.1016 99.3906,385.4766 Q98.4063,384.9766 97.7188,383.9141 Q97.0313,382.8359 97.0313,381.5547 L97.0313,380.3984 Q97.0313,379.0703 97.6406,377.9297 Q98.2656,376.7734 99.3594,376.1641 Q100.4531,375.5391 101.6875,375.5391 Q102.4219,375.5391 103.0625,375.7109 Q103.7188,375.8672 104.2656,376.2266 Z " fill="#000000"/><text fill="#000000" font-family="sans-serif" font-size="12" font-style="italic" lengthAdjust="spacing" textLength="179" x="136.5" y="376.457">&#171;MedComCorePractitionerRole&#187;</text><text fill="#000000" font-family="sans-serif" font-size="14" lengthAdjust="spacing" textLength="221" x="115.5" y="393.627">MedComDocumentPractitionerRole</text></g><!--class patient--><g id="elem_patient"><rect codeLine="10" fill="#F1F1F1" height="42.7031" id="patient" rx="2.5" ry="2.5" style="stroke:#181818;stroke-width:0.5;" width="196" x="766" y="359"/><ellipse cx="781" cy="380.3516" fill="#ADD1B2" rx="11" ry="11" style="stroke:#181818;stroke-width:1.0;"/><path d="M783.7656,376.2266 Q783.9219,376.0078 784.1094,375.8984 Q784.2969,375.7891 784.5156,375.7891 Q784.8906,375.7891 785.125,376.0547 Q785.3594,376.3047 785.3594,376.9141 L785.3594,378.3672 Q785.3594,378.9766 785.125,379.2422 Q784.8906,379.5078 784.5156,379.5078 Q784.1719,379.5078 783.9688,379.3047 Q783.7656,379.1172 783.6563,378.6016 Q783.6094,378.2422 783.4219,378.0547 Q783.0938,377.6797 782.4844,377.4609 Q781.875,377.2422 781.25,377.2422 Q780.4844,377.2422 779.8438,377.5703 Q779.2188,377.8984 778.7188,378.6484 Q778.2344,379.3984 778.2344,380.4297 L778.2344,381.5234 Q778.2344,382.7578 779.125,383.5859 Q780.0156,384.3984 781.6094,384.3984 Q782.5469,384.3984 783.2031,384.1484 Q783.5938,383.9922 784.0156,383.5547 Q784.2813,383.2891 784.4219,383.2109 Q784.5781,383.1328 784.7813,383.1328 Q785.1094,383.1328 785.3594,383.3984 Q785.625,383.6484 785.625,383.9922 Q785.625,384.3359 785.2813,384.7422 Q784.7813,385.3203 783.9844,385.6484 Q782.9063,386.1016 781.6094,386.1016 Q780.0938,386.1016 778.8906,385.4766 Q777.9063,384.9766 777.2188,383.9141 Q776.5313,382.8359 776.5313,381.5547 L776.5313,380.3984 Q776.5313,379.0703 777.1406,377.9297 Q777.7656,376.7734 778.8594,376.1641 Q779.9531,375.5391 781.1875,375.5391 Q781.9219,375.5391 782.5625,375.7109 Q783.2188,375.8672 783.7656,376.2266 Z " fill="#000000"/><text fill="#000000" font-family="sans-serif" font-size="12" font-style="italic" lengthAdjust="spacing" textLength="95" x="829.5" y="376.457">&#171;DkCorePatient&#187;</text><text fill="#000000" font-family="sans-serif" font-size="14" lengthAdjust="spacing" textLength="164" x="795" y="393.627">MedComDocumentPatient</text></g><!--class relatedperson--><g id="elem_relatedperson"><rect codeLine="11" fill="#F1F1F1" height="42.7031" id="relatedperson" rx="2.5" ry="2.5" style="stroke:#181818;stroke-width:0.5;" width="174" x="375" y="359"/><ellipse cx="390" cy="380.3516" fill="#ADD1B2" rx="11" ry="11" style="stroke:#181818;stroke-width:1.0;"/><path d="M392.7656,376.2266 Q392.9219,376.0078 393.1094,375.8984 Q393.2969,375.7891 393.5156,375.7891 Q393.8906,375.7891 394.125,376.0547 Q394.3594,376.3047 394.3594,376.9141 L394.3594,378.3672 Q394.3594,378.9766 394.125,379.2422 Q393.8906,379.5078 393.5156,379.5078 Q393.1719,379.5078 392.9688,379.3047 Q392.7656,379.1172 392.6563,378.6016 Q392.6094,378.2422 392.4219,378.0547 Q392.0938,377.6797 391.4844,377.4609 Q390.875,377.2422 390.25,377.2422 Q389.4844,377.2422 388.8438,377.5703 Q388.2188,377.8984 387.7188,378.6484 Q387.2344,379.3984 387.2344,380.4297 L387.2344,381.5234 Q387.2344,382.7578 388.125,383.5859 Q389.0156,384.3984 390.6094,384.3984 Q391.5469,384.3984 392.2031,384.1484 Q392.5938,383.9922 393.0156,383.5547 Q393.2813,383.2891 393.4219,383.2109 Q393.5781,383.1328 393.7813,383.1328 Q394.1094,383.1328 394.3594,383.3984 Q394.625,383.6484 394.625,383.9922 Q394.625,384.3359 394.2813,384.7422 Q393.7813,385.3203 392.9844,385.6484 Q391.9063,386.1016 390.6094,386.1016 Q389.0938,386.1016 387.8906,385.4766 Q386.9063,384.9766 386.2188,383.9141 Q385.5313,382.8359 385.5313,381.5547 L385.5313,380.3984 Q385.5313,379.0703 386.1406,377.9297 Q386.7656,376.7734 387.8594,376.1641 Q388.9531,375.5391 390.1875,375.5391 Q390.9219,375.5391 391.5625,375.7109 Q392.2188,375.8672 392.7656,376.2266 Z " fill="#000000"/><text fill="#000000" font-family="sans-serif" font-size="12" font-style="italic" lengthAdjust="spacing" textLength="96" x="427" y="376.457">&#171;RelatedPerson&#187;</text><text fill="#000000" font-family="sans-serif" font-size="14" lengthAdjust="spacing" textLength="142" x="404" y="393.627">DkCoreRelatedPerson</text></g><!--class device--><g id="elem_device"><rect codeLine="12" fill="#F1F1F1" height="32" id="device" rx="2.5" ry="2.5" style="stroke:#181818;stroke-width:0.5;" width="75" x="584.5" y="364.5"/><ellipse cx="599.5" cy="380.5" fill="#ADD1B2" rx="11" ry="11" style="stroke:#181818;stroke-width:1.0;"/><path d="M602.2656,376.375 Q602.4219,376.1563 602.6094,376.0469 Q602.7969,375.9375 603.0156,375.9375 Q603.3906,375.9375 603.625,376.2031 Q603.8594,376.4531 603.8594,377.0625 L603.8594,378.5156 Q603.8594,379.125 603.625,379.3906 Q603.3906,379.6563 603.0156,379.6563 Q602.6719,379.6563 602.4688,379.4531 Q602.2656,379.2656 602.1563,378.75 Q602.1094,378.3906 601.9219,378.2031 Q601.5938,377.8281 600.9844,377.6094 Q600.375,377.3906 599.75,377.3906 Q598.9844,377.3906 598.3438,377.7188 Q597.7188,378.0469 597.2188,378.7969 Q596.7344,379.5469 596.7344,380.5781 L596.7344,381.6719 Q596.7344,382.9063 597.625,383.7344 Q598.5156,384.5469 600.1094,384.5469 Q601.0469,384.5469 601.7031,384.2969 Q602.0938,384.1406 602.5156,383.7031 Q602.7813,383.4375 602.9219,383.3594 Q603.0781,383.2813 603.2813,383.2813 Q603.6094,383.2813 603.8594,383.5469 Q604.125,383.7969 604.125,384.1406 Q604.125,384.4844 603.7813,384.8906 Q603.2813,385.4688 602.4844,385.7969 Q601.4063,386.25 600.1094,386.25 Q598.5938,386.25 597.3906,385.625 Q596.4063,385.125 595.7188,384.0625 Q595.0313,382.9844 595.0313,381.7031 L595.0313,380.5469 Q595.0313,379.2188 595.6406,378.0781 Q596.2656,376.9219 597.3594,376.3125 Q598.4531,375.6875 599.6875,375.6875 Q600.4219,375.6875 601.0625,375.8594 Q601.7188,376.0156 602.2656,376.375 Z " fill="#000000"/><text fill="#000000" font-family="sans-serif" font-size="14" lengthAdjust="spacing" textLength="43" x="613.5" y="386.2285">Device</text></g><!--class content--><g id="elem_content"><rect codeLine="13" fill="#F1F1F1" height="32" id="content" rx="2.5" ry="2.5" style="stroke:#181818;stroke-width:0.5;" width="198" x="596" y="249"/><ellipse cx="611" cy="265" fill="#ADD1B2" rx="11" ry="11" style="stroke:#181818;stroke-width:1.0;"/><path d="M613.7656,260.875 Q613.9219,260.6563 614.1094,260.5469 Q614.2969,260.4375 614.5156,260.4375 Q614.8906,260.4375 615.125,260.7031 Q615.3594,260.9531 615.3594,261.5625 L615.3594,263.0156 Q615.3594,263.625 615.125,263.8906 Q614.8906,264.1563 614.5156,264.1563 Q614.1719,264.1563 613.9688,263.9531 Q613.7656,263.7656 613.6563,263.25 Q613.6094,262.8906 613.4219,262.7031 Q613.0938,262.3281 612.4844,262.1094 Q611.875,261.8906 611.25,261.8906 Q610.4844,261.8906 609.8438,262.2188 Q609.2188,262.5469 608.7188,263.2969 Q608.2344,264.0469 608.2344,265.0781 L608.2344,266.1719 Q608.2344,267.4063 609.125,268.2344 Q610.0156,269.0469 611.6094,269.0469 Q612.5469,269.0469 613.2031,268.7969 Q613.5938,268.6406 614.0156,268.2031 Q614.2813,267.9375 614.4219,267.8594 Q614.5781,267.7813 614.7813,267.7813 Q615.1094,267.7813 615.3594,268.0469 Q615.625,268.2969 615.625,268.6406 Q615.625,268.9844 615.2813,269.3906 Q614.7813,269.9688 613.9844,270.2969 Q612.9063,270.75 611.6094,270.75 Q610.0938,270.75 608.8906,270.125 Q607.9063,269.625 607.2188,268.5625 Q606.5313,267.4844 606.5313,266.2031 L606.5313,265.0469 Q606.5313,263.7188 607.1406,262.5781 Q607.7656,261.4219 608.8594,260.8125 Q609.9531,260.1875 611.1875,260.1875 Q611.9219,260.1875 612.5625,260.3594 Q613.2188,260.5156 613.7656,260.875 Z " fill="#000000"/><text fill="#000000" font-family="sans-serif" font-size="14" lengthAdjust="spacing" textLength="166" x="625" y="270.7285">'Use case specific content'</text></g><!--class authorPerson--><g id="elem_authorPerson"><rect codeLine="16" fill="#F1F1F1" height="32" id="authorPerson" rx="2.5" ry="2.5" style="stroke:#181818;stroke-width:0.5;" width="119" x="441.5" y="249"/><ellipse cx="456.5" cy="265" fill="#B4A7E5" rx="11" ry="11" style="stroke:#181818;stroke-width:1.0;"/><path d="M457.4531,261.6406 L457.4531,268.2969 L459.1719,268.2969 Q459.7813,268.2969 460.0469,268.5313 Q460.3125,268.7656 460.3125,269.1563 Q460.3125,269.5313 460.0469,269.7656 Q459.7813,270 459.1719,270 L454.0313,270 Q453.4219,270 453.1563,269.7656 Q452.8906,269.5313 452.8906,269.1406 Q452.8906,268.7656 453.1563,268.5313 Q453.4219,268.2969 454.0313,268.2969 L455.75,268.2969 L455.75,261.6406 L454.0313,261.6406 Q453.4219,261.6406 453.1563,261.4063 Q452.8906,261.1719 452.8906,260.7813 Q452.8906,260.4063 453.1563,260.1719 Q453.4219,259.9375 454.0313,259.9375 L459.1719,259.9375 Q459.7813,259.9375 460.0469,260.1719 Q460.3125,260.4063 460.3125,260.7813 Q460.3125,261.1719 460.0469,261.4063 Q459.7813,261.6406 459.1719,261.6406 L457.4531,261.6406 Z " fill="#000000"/><text fill="#000000" font-family="sans-serif" font-size="14" font-style="italic" lengthAdjust="spacing" textLength="87" x="470.5" y="270.7285">AuthorPerson</text></g><!--link document to composition--><g id="link_document_composition"><path codeLine="19" d="M634,50.23 C634,71.94 634,105.84 634,127.61 " fill="none" id="document-composition" style="stroke:#181818;stroke-width:1.0;"/><text fill="#000000" font-family="sans-serif" font-size="13" lengthAdjust="spacing" textLength="29" x="635" y="94.4951">entry</text></g><!--link composition to authorPerson--><g id="link_composition_authorPerson"><path codeLine="22" d="M608.64,171.23 C597.63,180.3 584.62,191.11 573,201 C554.03,217.15 532.57,236 518.05,248.85 " fill="none" id="composition-authorPerson" style="stroke:#181818;stroke-width:1.0;"/><text fill="#000000" font-family="sans-serif" font-size="13" lengthAdjust="spacing" textLength="79" x="574" y="215.4951">author:person</text></g><!--link composition to organization--><g id="link_composition_organization"><path codeLine="23" d="M518.78,156.03 C385.16,169.34 170.33,213.6 69,359 C42.24,397.4 78.8,450.81 103.56,479.79 " fill="none" id="composition-organization" style="stroke:#181818;stroke-width:1.0;"/><text fill="#000000" font-family="sans-serif" font-size="13" lengthAdjust="spacing" textLength="110" x="110" y="325.4951">author:organization</text></g><!--link composition to patient--><g id="link_composition_patient"><path codeLine="24" d="M699.95,171.09 C738.44,186.49 784.66,211.45 812,249 C837.12,283.5 852.2,331.82 859.22,358.94 " fill="none" id="composition-patient" style="stroke:#181818;stroke-width:1.0;"/><text fill="#000000" font-family="sans-serif" font-size="13" lengthAdjust="spacing" textLength="42" x="831" y="270.4951">subject</text></g><!--link composition to content--><g id="link_composition_content"><path codeLine="25" d="M645.05,171.05 C657.06,193.41 675.99,228.64 686.77,248.69 " fill="none" id="composition-content" style="stroke:#181818;stroke-width:1.0;"/><text fill="#000000" font-family="sans-serif" font-size="13" lengthAdjust="spacing" textLength="75" x="670" y="215.4951">section.entry</text></g><!--link practitionerrole to practitioner--><g id="link_practitionerrole_practitioner"><path codeLine="28" d="M271.32,402.09 C333.11,423.91 430.1,458.16 491.83,479.96 " fill="none" id="practitionerrole-practitioner" style="stroke:#181818;stroke-width:1.0;"/><text fill="#000000" font-family="sans-serif" font-size="13" lengthAdjust="spacing" textLength="64" x="403" y="446.4951">practitioner</text></g><!--link practitionerrole to organization--><g id="link_practitionerrole_organization"><path codeLine="29" d="M185.35,402.17 C175.25,410.64 164.29,421.03 156,432 C144.93,446.64 136.16,465.57 130.44,479.83 " fill="none" id="practitionerrole-organization" style="stroke:#181818;stroke-width:1.0;"/><text fill="#000000" font-family="sans-serif" font-size="13" lengthAdjust="spacing" textLength="70" x="157" y="446.4951">organization</text></g><!--reverse link authorPerson to practitioner--><g id="link_authorPerson_practitioner"><path codeLine="32" d="M577.971,285.8663 C618.491,299.0163 651.94,317.41 677,359 C706.05,407.21 640.07,453.97 592.76,479.82 " fill="none" id="authorPerson-backto-practitioner" style="stroke:#181818;stroke-width:1.0;stroke-dasharray:7.0,7.0;"/><polygon fill="none" points="560.85,280.31,576.1189,291.5733,579.8231,280.1593,560.85,280.31" style="stroke:#181818;stroke-width:1.0;"/></g><!--reverse link authorPerson to practitionerrole--><g id="link_authorPerson_practitionerrole"><path codeLine="33" d="M446.0135,287.6697 C395.2135,307.6897 322.02,336.53 265.07,358.98 " fill="none" id="authorPerson-backto-practitionerrole" style="stroke:#181818;stroke-width:1.0;stroke-dasharray:7.0,7.0;"/><polygon fill="none" points="462.76,281.07,443.8136,282.0875,448.2134,293.2518,462.76,281.07" style="stroke:#181818;stroke-width:1.0;"/></g><!--reverse link authorPerson to patient--><g id="link_authorPerson_patient"><path codeLine="34" d="M578.2973,280.8829 C584.4973,282.0729 573.04,279.87 579,281 C650.08,294.5 670.87,286.65 739,311 C772.79,323.08 808.4,343.45 832.93,358.85 " fill="none" id="authorPerson-backto-patient" style="stroke:#181818;stroke-width:1.0;stroke-dasharray:7.0,7.0;"/><polygon fill="none" points="560.62,277.49,577.1664,286.7754,579.4283,274.9905,560.62,277.49" style="stroke:#181818;stroke-width:1.0;"/></g><!--reverse link authorPerson to relatedperson--><g id="link_authorPerson_relatedperson"><path codeLine="35" d="M489.8921,298.3336 C483.0321,318.3036 476.85,336.29 469.16,358.67 " fill="none" id="authorPerson-backto-relatedperson" style="stroke:#181818;stroke-width:1.0;stroke-dasharray:7.0,7.0;"/><polygon fill="none" points="495.74,281.31,484.2176,296.3843,495.5667,300.2829,495.74,281.31" style="stroke:#181818;stroke-width:1.0;"/></g><!--reverse link authorPerson to device--><g id="link_authorPerson_device"><path codeLine="36" d="M530.4485,293.6243 C553.6685,315.4043 582.86,342.79 605.94,364.44 " fill="none" id="authorPerson-backto-device" style="stroke:#181818;stroke-width:1.0;stroke-dasharray:7.0,7.0;"/><polygon fill="none" points="517.32,281.31,526.3437,298.0005,534.5533,289.2482,517.32,281.31" style="stroke:#181818;stroke-width:1.0;"/></g><!--SRC=[ZLDBJiCm4Dtd5ADikg4z0AgAe0YnGQ0Y3k0wqsBoSJHsAXMnu1eSW5waD-4aJ6otTTfKi6dZDs-Uv_FygZ84B6kxXXBBEP994ba8Oo1zm6ogorijcn8hUzDKMO4f20DPW60yzkXaqf_3dxKsoYfTkKHvE7Dk56M1VeL7MefAlOkzX8u0rl3igIQCcUVgUI8XhRiGoQdL4T1HYvd_KPlfC9jOaHWygzfcd5NcBlZF2_flrhdDdOO_7r8zFCD2MCoUU85XKkIHsY6Stc54wRXICkpLVUu2WnU380N_c1gbMYZ9-wiitpq8otI791d0tNPJ56X0p8qbaRlTB3I1OFI2PGboKS5gko44qTXNJPU-h4In1Ys4H4YlNI1gG4H0UyjmE8HdIqrk6u9w-yq-pDsuqBQnP6zBviLEkuIKKLgdhKXaEgXnYK49kU3GX5tNF8E8nd9nAQrUfudqcDtnw84TmoSvkpKptJJpDvJsX186xYWSPtHqwElOMZ-VNmPmMQ7tWNVu75U2q2Gd9cqBY9y2Nn6VqzwCupQx_N5DzojLvEW6UjO1LqbdjkEFqQXJoX_XjfO-YfzcJwJpAdhYuGty0W00]--></g></svg>