<?xml version="1.0" encoding="us-ascii" standalone="no"?><svg xmlns="http://www.w3.org/2000/svg" xmlns:xlink="http://www.w3.org/1999/xlink" contentStyleType="text/css" height="539px" preserveAspectRatio="none" style="width:775px;height:539px;background:#FFFFFF;" version="1.1" viewBox="0 0 775 539" width="775px" zoomAndPan="magnify"><defs/><g><!--class document--><g id="elem_document"><rect codeLine="4" fill="#F1F1F1" height="42.7031" id="document" rx="2.5" ry="2.5" style="stroke:#181818;stroke-width:0.5;" width="221" x="78.4" y="7"/><ellipse cx="93.4" cy="28.3516" fill="#ADD1B2" rx="11" ry="11" style="stroke:#181818;stroke-width:1.0;"/><path d="M96.1656,24.2266 Q96.3219,24.0078 96.5094,23.8984 Q96.6969,23.7891 96.9156,23.7891 Q97.2906,23.7891 97.525,24.0547 Q97.7594,24.3047 97.7594,24.9141 L97.7594,26.3672 Q97.7594,26.9766 97.525,27.2422 Q97.2906,27.5078 96.9156,27.5078 Q96.5719,27.5078 96.3688,27.3047 Q96.1656,27.1172 96.0563,26.6016 Q96.0094,26.2422 95.8219,26.0547 Q95.4938,25.6797 94.8844,25.4609 Q94.275,25.2422 93.65,25.2422 Q92.8844,25.2422 92.2438,25.5703 Q91.6188,25.8984 91.1188,26.6484 Q90.6344,27.3984 90.6344,28.4297 L90.6344,29.5234 Q90.6344,30.7578 91.525,31.5859 Q92.4156,32.3984 94.0094,32.3984 Q94.9469,32.3984 95.6031,32.1484 Q95.9938,31.9922 96.4156,31.5547 Q96.6813,31.2891 96.8219,31.2109 Q96.9781,31.1328 97.1813,31.1328 Q97.5094,31.1328 97.7594,31.3984 Q98.025,31.6484 98.025,31.9922 Q98.025,32.3359 97.6813,32.7422 Q97.1813,33.3203 96.3844,33.6484 Q95.3063,34.1016 94.0094,34.1016 Q92.4938,34.1016 91.2906,33.4766 Q90.3063,32.9766 89.6188,31.9141 Q88.9313,30.8359 88.9313,29.5547 L88.9313,28.3984 Q88.9313,27.0703 89.5406,25.9297 Q90.1656,24.7734 91.2594,24.1641 Q92.3531,23.5391 93.5875,23.5391 Q94.3219,23.5391 94.9625,23.7109 Q95.6188,23.8672 96.1656,24.2266 Z " fill="#000000"/><text fill="#000000" font-family="sans-serif" font-size="12" font-style="italic" lengthAdjust="spacing" textLength="160" x="121.9" y="24.457">&#171;MedComDocumentBundle&#187;</text><text fill="#000000" font-family="sans-serif" font-size="14" lengthAdjust="spacing" textLength="189" x="107.4" y="41.627">MedComEkgRecordingBundle</text></g><!--class composition--><g id="elem_composition"><rect codeLine="5" fill="#F1F1F1" height="42.7031" id="composition" rx="2.5" ry="2.5" style="stroke:#181818;stroke-width:0.5;" width="255" x="61.4" y="128"/><ellipse cx="76.4" cy="149.3516" fill="#ADD1B2" rx="11" ry="11" style="stroke:#181818;stroke-width:1.0;"/><path d="M79.1656,145.2266 Q79.3219,145.0078 79.5094,144.8984 Q79.6969,144.7891 79.9156,144.7891 Q80.2906,144.7891 80.525,145.0547 Q80.7594,145.3047 80.7594,145.9141 L80.7594,147.3672 Q80.7594,147.9766 80.525,148.2422 Q80.2906,148.5078 79.9156,148.5078 Q79.5719,148.5078 79.3688,148.3047 Q79.1656,148.1172 79.0563,147.6016 Q79.0094,147.2422 78.8219,147.0547 Q78.4938,146.6797 77.8844,146.4609 Q77.275,146.2422 76.65,146.2422 Q75.8844,146.2422 75.2438,146.5703 Q74.6188,146.8984 74.1188,147.6484 Q73.6344,148.3984 73.6344,149.4297 L73.6344,150.5234 Q73.6344,151.7578 74.525,152.5859 Q75.4156,153.3984 77.0094,153.3984 Q77.9469,153.3984 78.6031,153.1484 Q78.9938,152.9922 79.4156,152.5547 Q79.6813,152.2891 79.8219,152.2109 Q79.9781,152.1328 80.1813,152.1328 Q80.5094,152.1328 80.7594,152.3984 Q81.025,152.6484 81.025,152.9922 Q81.025,153.3359 80.6813,153.7422 Q80.1813,154.3203 79.3844,154.6484 Q78.3063,155.1016 77.0094,155.1016 Q75.4938,155.1016 74.2906,154.4766 Q73.3063,153.9766 72.6188,152.9141 Q71.9313,151.8359 71.9313,150.5547 L71.9313,149.3984 Q71.9313,148.0703 72.5406,146.9297 Q73.1656,145.7734 74.2594,145.1641 Q75.3531,144.5391 76.5875,144.5391 Q77.3219,144.5391 77.9625,144.7109 Q78.6188,144.8672 79.1656,145.2266 Z " fill="#000000"/><text fill="#000000" font-family="sans-serif" font-size="12" font-style="italic" lengthAdjust="spacing" textLength="191" x="106.4" y="145.457">&#171;MedComDocumentComposition&#187;</text><text fill="#000000" font-family="sans-serif" font-size="14" lengthAdjust="spacing" textLength="223" x="90.4" y="162.627">MedComEkgRecordingComposition</text></g><!--class organization--><g id="elem_organization"><rect codeLine="7" fill="#F1F1F1" height="42.7031" id="organization" rx="2.5" ry="2.5" style="stroke:#181818;stroke-width:0.5;" width="232" x="243.9" y="491"/><ellipse cx="258.9" cy="512.3516" fill="#ADD1B2" rx="11" ry="11" style="stroke:#181818;stroke-width:1.0;"/><path d="M261.6656,508.2266 Q261.8219,508.0078 262.0094,507.8984 Q262.1969,507.7891 262.4156,507.7891 Q262.7906,507.7891 263.025,508.0547 Q263.2594,508.3047 263.2594,508.9141 L263.2594,510.3672 Q263.2594,510.9766 263.025,511.2422 Q262.7906,511.5078 262.4156,511.5078 Q262.0719,511.5078 261.8688,511.3047 Q261.6656,511.1172 261.5563,510.6016 Q261.5094,510.2422 261.3219,510.0547 Q260.9938,509.6797 260.3844,509.4609 Q259.775,509.2422 259.15,509.2422 Q258.3844,509.2422 257.7438,509.5703 Q257.1188,509.8984 256.6188,510.6484 Q256.1344,511.3984 256.1344,512.4297 L256.1344,513.5234 Q256.1344,514.7578 257.025,515.5859 Q257.9156,516.3984 259.5094,516.3984 Q260.4469,516.3984 261.1031,516.1484 Q261.4938,515.9922 261.9156,515.5547 Q262.1813,515.2891 262.3219,515.2109 Q262.4781,515.1328 262.6813,515.1328 Q263.0094,515.1328 263.2594,515.3984 Q263.525,515.6484 263.525,515.9922 Q263.525,516.3359 263.1813,516.7422 Q262.6813,517.3203 261.8844,517.6484 Q260.8063,518.1016 259.5094,518.1016 Q257.9938,518.1016 256.7906,517.4766 Q255.8062,516.9766 255.1187,515.9141 Q254.4312,514.8359 254.4312,513.5547 L254.4312,512.3984 Q254.4312,511.0703 255.0406,509.9297 Q255.6656,508.7734 256.7594,508.1641 Q257.8531,507.5391 259.0875,507.5391 Q259.8219,507.5391 260.4625,507.7109 Q261.1188,507.8672 261.6656,508.2266 Z " fill="#000000"/><text fill="#000000" font-family="sans-serif" font-size="12" font-style="italic" lengthAdjust="spacing" textLength="162" x="291.9" y="508.457">&#171;MedComCoreOrganization&#187;</text><text fill="#000000" font-family="sans-serif" font-size="14" lengthAdjust="spacing" textLength="200" x="272.9" y="525.627">MedComDocumentOrganization</text></g><!--class practitioner--><g id="elem_practitioner"><rect codeLine="8" fill="#F1F1F1" height="42.7031" id="practitioner" rx="2.5" ry="2.5" style="stroke:#181818;stroke-width:0.5;" width="224" x="544.9" y="491"/><ellipse cx="559.9" cy="512.3516" fill="#ADD1B2" rx="11" ry="11" style="stroke:#181818;stroke-width:1.0;"/><path d="M562.6656,508.2266 Q562.8219,508.0078 563.0094,507.8984 Q563.1969,507.7891 563.4156,507.7891 Q563.7906,507.7891 564.025,508.0547 Q564.2594,508.3047 564.2594,508.9141 L564.2594,510.3672 Q564.2594,510.9766 564.025,511.2422 Q563.7906,511.5078 563.4156,511.5078 Q563.0719,511.5078 562.8688,511.3047 Q562.6656,511.1172 562.5563,510.6016 Q562.5094,510.2422 562.3219,510.0547 Q561.9938,509.6797 561.3844,509.4609 Q560.775,509.2422 560.15,509.2422 Q559.3844,509.2422 558.7438,509.5703 Q558.1188,509.8984 557.6188,510.6484 Q557.1344,511.3984 557.1344,512.4297 L557.1344,513.5234 Q557.1344,514.7578 558.025,515.5859 Q558.9156,516.3984 560.5094,516.3984 Q561.4469,516.3984 562.1031,516.1484 Q562.4938,515.9922 562.9156,515.5547 Q563.1813,515.2891 563.3219,515.2109 Q563.4781,515.1328 563.6813,515.1328 Q564.0094,515.1328 564.2594,515.3984 Q564.525,515.6484 564.525,515.9922 Q564.525,516.3359 564.1813,516.7422 Q563.6813,517.3203 562.8844,517.6484 Q561.8063,518.1016 560.5094,518.1016 Q558.9938,518.1016 557.7906,517.4766 Q556.8063,516.9766 556.1188,515.9141 Q555.4313,514.8359 555.4313,513.5547 L555.4313,512.3984 Q555.4313,511.0703 556.0406,509.9297 Q556.6656,508.7734 557.7594,508.1641 Q558.8531,507.5391 560.0875,507.5391 Q560.8219,507.5391 561.4625,507.7109 Q562.1188,507.8672 562.6656,508.2266 Z " fill="#000000"/><text fill="#000000" font-family="sans-serif" font-size="12" font-style="italic" lengthAdjust="spacing" textLength="153" x="593.4" y="508.457">&#171;MedComCorePractitioner&#187;</text><text fill="#000000" font-family="sans-serif" font-size="14" lengthAdjust="spacing" textLength="192" x="573.9" y="525.627">MedComDocumentPractitioner</text></g><!--class practitionerrole--><g id="elem_practitionerrole"><rect codeLine="9" fill="#F1F1F1" height="42.7031" id="practitionerrole" rx="2.5" ry="2.5" style="stroke:#181818;stroke-width:0.5;" width="253" x="451.4" y="370"/><ellipse cx="466.4" cy="391.3516" fill="#ADD1B2" rx="11" ry="11" style="stroke:#181818;stroke-width:1.0;"/><path d="M469.1656,387.2266 Q469.3219,387.0078 469.5094,386.8984 Q469.6969,386.7891 469.9156,386.7891 Q470.2906,386.7891 470.525,387.0547 Q470.7594,387.3047 470.7594,387.9141 L470.7594,389.3672 Q470.7594,389.9766 470.525,390.2422 Q470.2906,390.5078 469.9156,390.5078 Q469.5719,390.5078 469.3688,390.3047 Q469.1656,390.1172 469.0563,389.6016 Q469.0094,389.2422 468.8219,389.0547 Q468.4938,388.6797 467.8844,388.4609 Q467.275,388.2422 466.65,388.2422 Q465.8844,388.2422 465.2438,388.5703 Q464.6188,388.8984 464.1188,389.6484 Q463.6344,390.3984 463.6344,391.4297 L463.6344,392.5234 Q463.6344,393.7578 464.525,394.5859 Q465.4156,395.3984 467.0094,395.3984 Q467.9469,395.3984 468.6031,395.1484 Q468.9938,394.9922 469.4156,394.5547 Q469.6813,394.2891 469.8219,394.2109 Q469.9781,394.1328 470.1813,394.1328 Q470.5094,394.1328 470.7594,394.3984 Q471.025,394.6484 471.025,394.9922 Q471.025,395.3359 470.6813,395.7422 Q470.1813,396.3203 469.3844,396.6484 Q468.3063,397.1016 467.0094,397.1016 Q465.4938,397.1016 464.2906,396.4766 Q463.3063,395.9766 462.6188,394.9141 Q461.9313,393.8359 461.9313,392.5547 L461.9313,391.3984 Q461.9313,390.0703 462.5406,388.9297 Q463.1656,387.7734 464.2594,387.1641 Q465.3531,386.5391 466.5875,386.5391 Q467.3219,386.5391 467.9625,386.7109 Q468.6188,386.8672 469.1656,387.2266 Z " fill="#000000"/><text fill="#000000" font-family="sans-serif" font-size="12" font-style="italic" lengthAdjust="spacing" textLength="179" x="501.4" y="387.457">&#171;MedComCorePractitionerRole&#187;</text><text fill="#000000" font-family="sans-serif" font-size="14" lengthAdjust="spacing" textLength="221" x="480.4" y="404.627">MedComDocumentPractitionerRole</text></g><!--class patient--><g id="elem_patient"><rect codeLine="10" fill="#F1F1F1" height="42.7031" id="patient" rx="2.5" ry="2.5" style="stroke:#181818;stroke-width:0.5;" width="196" x="88.9" y="370"/><ellipse cx="103.9" cy="391.3516" fill="#ADD1B2" rx="11" ry="11" style="stroke:#181818;stroke-width:1.0;"/><path d="M106.6656,387.2266 Q106.8219,387.0078 107.0094,386.8984 Q107.1969,386.7891 107.4156,386.7891 Q107.7906,386.7891 108.025,387.0547 Q108.2594,387.3047 108.2594,387.9141 L108.2594,389.3672 Q108.2594,389.9766 108.025,390.2422 Q107.7906,390.5078 107.4156,390.5078 Q107.0719,390.5078 106.8688,390.3047 Q106.6656,390.1172 106.5563,389.6016 Q106.5094,389.2422 106.3219,389.0547 Q105.9938,388.6797 105.3844,388.4609 Q104.775,388.2422 104.15,388.2422 Q103.3844,388.2422 102.7438,388.5703 Q102.1188,388.8984 101.6188,389.6484 Q101.1344,390.3984 101.1344,391.4297 L101.1344,392.5234 Q101.1344,393.7578 102.025,394.5859 Q102.9156,395.3984 104.5094,395.3984 Q105.4469,395.3984 106.1031,395.1484 Q106.4938,394.9922 106.9156,394.5547 Q107.1813,394.2891 107.3219,394.2109 Q107.4781,394.1328 107.6813,394.1328 Q108.0094,394.1328 108.2594,394.3984 Q108.525,394.6484 108.525,394.9922 Q108.525,395.3359 108.1813,395.7422 Q107.6813,396.3203 106.8844,396.6484 Q105.8063,397.1016 104.5094,397.1016 Q102.9938,397.1016 101.7906,396.4766 Q100.8063,395.9766 100.1188,394.9141 Q99.4313,393.8359 99.4313,392.5547 L99.4313,391.3984 Q99.4313,390.0703 100.0406,388.9297 Q100.6656,387.7734 101.7594,387.1641 Q102.8531,386.5391 104.0875,386.5391 Q104.8219,386.5391 105.4625,386.7109 Q106.1188,386.8672 106.6656,387.2266 Z " fill="#000000"/><text fill="#000000" font-family="sans-serif" font-size="12" font-style="italic" lengthAdjust="spacing" textLength="95" x="152.4" y="387.457">&#171;DkCorePatient&#187;</text><text fill="#000000" font-family="sans-serif" font-size="14" lengthAdjust="spacing" textLength="164" x="117.9" y="404.627">MedComDocumentPatient</text></g><!--class content--><g id="elem_content"><rect codeLine="11" fill="#F1F1F1" height="42.7031" id="content" rx="2.5" ry="2.5" style="stroke:#181818;stroke-width:0.5;" width="254" x="238.9" y="249"/><ellipse cx="253.9" cy="270.3516" fill="#ADD1B2" rx="11" ry="11" style="stroke:#181818;stroke-width:1.0;"/><path d="M256.6656,266.2266 Q256.8219,266.0078 257.0094,265.8984 Q257.1969,265.7891 257.4156,265.7891 Q257.7906,265.7891 258.025,266.0547 Q258.2594,266.3047 258.2594,266.9141 L258.2594,268.3672 Q258.2594,268.9766 258.025,269.2422 Q257.7906,269.5078 257.4156,269.5078 Q257.0719,269.5078 256.8688,269.3047 Q256.6656,269.1172 256.5563,268.6016 Q256.5094,268.2422 256.3219,268.0547 Q255.9938,267.6797 255.3844,267.4609 Q254.775,267.2422 254.15,267.2422 Q253.3844,267.2422 252.7438,267.5703 Q252.1188,267.8984 251.6188,268.6484 Q251.1344,269.3984 251.1344,270.4297 L251.1344,271.5234 Q251.1344,272.7578 252.025,273.5859 Q252.9156,274.3984 254.5094,274.3984 Q255.4469,274.3984 256.1031,274.1484 Q256.4938,273.9922 256.9156,273.5547 Q257.1813,273.2891 257.3219,273.2109 Q257.4781,273.1328 257.6813,273.1328 Q258.0094,273.1328 258.2594,273.3984 Q258.525,273.6484 258.525,273.9922 Q258.525,274.3359 258.1813,274.7422 Q257.6813,275.3203 256.8844,275.6484 Q255.8063,276.1016 254.5094,276.1016 Q252.9938,276.1016 251.7906,275.4766 Q250.8063,274.9766 250.1188,273.9141 Q249.4313,272.8359 249.4313,271.5547 L249.4313,270.3984 Q249.4313,269.0703 250.0406,267.9297 Q250.6656,266.7734 251.7594,266.1641 Q252.8531,265.5391 254.0875,265.5391 Q254.8219,265.5391 255.4625,265.7109 Q256.1188,265.8672 256.6656,266.2266 Z " fill="#000000"/><text fill="#000000" font-family="sans-serif" font-size="12" font-style="italic" lengthAdjust="spacing" textLength="188" x="284.9" y="266.457">&#171;MedComDocumentObservation&#187;</text><text fill="#000000" font-family="sans-serif" font-size="14" lengthAdjust="spacing" textLength="222" x="267.9" y="283.627">MedComEkgRecordingObservation</text></g><!--class authorPerson--><g id="elem_authorPerson"><rect codeLine="14" fill="#F1F1F1" height="32" id="authorPerson" rx="2.5" ry="2.5" style="stroke:#181818;stroke-width:0.5;" width="119" x="528.4" y="254.5"/><ellipse cx="543.4" cy="270.5" fill="#B4A7E5" rx="11" ry="11" style="stroke:#181818;stroke-width:1.0;"/><path d="M544.3531,267.1406 L544.3531,273.7969 L546.0719,273.7969 Q546.6813,273.7969 546.9469,274.0313 Q547.2125,274.2656 547.2125,274.6563 Q547.2125,275.0313 546.9469,275.2656 Q546.6813,275.5 546.0719,275.5 L540.9313,275.5 Q540.3219,275.5 540.0563,275.2656 Q539.7906,275.0313 539.7906,274.6406 Q539.7906,274.2656 540.0563,274.0313 Q540.3219,273.7969 540.9313,273.7969 L542.65,273.7969 L542.65,267.1406 L540.9313,267.1406 Q540.3219,267.1406 540.0563,266.9063 Q539.7906,266.6719 539.7906,266.2813 Q539.7906,265.9063 540.0563,265.6719 Q540.3219,265.4375 540.9313,265.4375 L546.0719,265.4375 Q546.6813,265.4375 546.9469,265.6719 Q547.2125,265.9063 547.2125,266.2813 Q547.2125,266.6719 546.9469,266.9063 Q546.6813,267.1406 546.0719,267.1406 L544.3531,267.1406 Z " fill="#000000"/><text fill="#000000" font-family="sans-serif" font-size="14" font-style="italic" lengthAdjust="spacing" textLength="87" x="557.4" y="276.2285">AuthorPerson</text></g><!--link document to composition--><g id="link_document_composition"><path codeLine="17" d="M188.9,50.23 C188.9,71.94 188.9,105.84 188.9,127.61 " fill="none" id="document-composition" style="stroke:#181818;stroke-width:1.0;"/><text fill="#000000" font-family="sans-serif" font-size="13" lengthAdjust="spacing" textLength="29" x="189.9" y="94.4951">entry</text></g><!--link composition to authorPerson--><g id="link_composition_authorPerson"><path codeLine="20" d="M266.54,171.06 C299.43,179.96 338.12,190.69 372.9,201 C431.68,218.42 498.94,240.14 542.35,254.4 " fill="none" id="composition-authorPerson" style="stroke:#181818;stroke-width:1.0;"/><text fill="#000000" font-family="sans-serif" font-size="13" lengthAdjust="spacing" textLength="79" x="426.9" y="215.4951">author person</text></g><!--link composition to organization--><g id="link_composition_organization"><path codeLine="21" d="M165.91,171.03 C115.75,218.24 6,336.36 70.9,413 C113.63,463.47 183.34,488.14 243.59,500.17 " fill="none" id="composition-organization" style="stroke:#181818;stroke-width:1.0;"/><text fill="#000000" font-family="sans-serif" font-size="13" lengthAdjust="spacing" textLength="110" x="57.9" y="336.4951">author organization</text></g><!--link composition to patient--><g id="link_composition_patient"><path codeLine="22" d="M185.64,171.19 C182.68,191.07 178.54,222 176.9,249 C174.29,292.02 179.92,342.35 183.74,369.89 " fill="none" id="composition-patient" style="stroke:#181818;stroke-width:1.0;"/><text fill="#000000" font-family="sans-serif" font-size="13" lengthAdjust="spacing" textLength="42" x="177.9" y="275.9951">subject</text></g><!--link composition to content--><g id="link_composition_content"><path codeLine="23" d="M219.73,171.23 C252.12,193 302.76,227.05 335.12,248.81 " fill="none" id="composition-content" style="stroke:#181818;stroke-width:1.0;"/><text fill="#000000" font-family="sans-serif" font-size="13" lengthAdjust="spacing" textLength="75" x="288.9" y="215.4951">section.entry</text></g><!--link practitionerrole to practitioner--><g id="link_practitionerrole_practitioner"><path codeLine="26" d="M591.66,413.23 C606.07,434.94 628.58,468.84 643.03,490.61 " fill="none" id="practitionerrole-practitioner" style="stroke:#181818;stroke-width:1.0;"/><text fill="#000000" font-family="sans-serif" font-size="13" lengthAdjust="spacing" textLength="64" x="622.9" y="457.4951">practitioner</text></g><!--link practitionerrole to organization--><g id="link_practitionerrole_organization"><path codeLine="27" d="M539.92,413.23 C500.03,435 437.66,469.05 397.8,490.81 " fill="none" id="practitionerrole-organization" style="stroke:#181818;stroke-width:1.0;"/><text fill="#000000" font-family="sans-serif" font-size="13" lengthAdjust="spacing" textLength="70" x="482.9" y="457.4951">organization</text></g><!--reverse link authorPerson to practitioner--><g id="link_authorPerson_practitioner"><path codeLine="30" d="M640.4757,294.4342 C672.7457,310.0342 701.63,329.94 721.9,370 C743.26,412.21 705.04,462.84 678.72,490.64 " fill="none" id="authorPerson-backto-practitioner" style="stroke:#181818;stroke-width:1.0;stroke-dasharray:7.0,7.0;"/><polygon fill="none" points="624.27,286.6,637.8643,299.8361,643.0871,289.0323,624.27,286.6" style="stroke:#181818;stroke-width:1.0;"/></g><!--reverse link authorPerson to practitionerrole--><g id="link_authorPerson_practitionerrole"><path codeLine="31" d="M585.1197,304.5065 C583.3397,325.6465 581.62,346.23 579.62,369.97 " fill="none" id="authorPerson-backto-practitionerrole" style="stroke:#181818;stroke-width:1.0;stroke-dasharray:7.0,7.0;"/><polygon fill="none" points="586.63,286.57,579.1409,304.0031,591.0986,305.01,586.63,286.57" style="stroke:#181818;stroke-width:1.0;"/></g><!--link content to patient--><g id="link_content_patient"><path codeLine="33" d="M334.83,292.14 C321.07,301.28 304.67,312.18 289.9,322 C265.75,338.05 238.43,356.22 218,369.81 " fill="none" id="content-patient" style="stroke:#181818;stroke-width:1.0;"/><text fill="#000000" font-family="sans-serif" font-size="13" lengthAdjust="spacing" textLength="42" x="290.9" y="336.4951">subject</text></g><!--link content to organization--><g id="link_content_organization"><path codeLine="34" d="M365.38,292.38 C364.24,337.88 361.55,445.54 360.41,490.84 " fill="none" id="content-organization" style="stroke:#181818;stroke-width:1.0;"/><text fill="#000000" font-family="sans-serif" font-size="13" lengthAdjust="spacing" textLength="54" x="363.9" y="396.9951">performer</text></g><!--SRC=[ZPHDJiCm48NtESKe6pQq1wYg8YWWDgXLEO6J36b8OaTZfr8H2wx10U0YlGadOUoahPCsmAhn-FcRlwUkimG1oyfieSGoGj9141T2QmWVCPchyYvFLnWhIZAPtjGoAJ04eI5HSLsYD32TDhhRDj1ePhDX2XyhfJEJAUbGyV5yGlEqZEmozve5fK9ch-80L5xWG9mhGb_Pht1FMvA8ZKk8v6YL5-ZGVEL_Q2lLpiud4WS7gVR589cxu9y6s7mpvpPtZERysn8MaKRQ26y9qfnRfwUp2xY0-zrNKQ064Mb38dSpVbO4WgENaF2CSY5Xi_iY156RjQ99nQvICiWu0psB626yTXTB5tVfXHUmMKQZ4JmPgdDJ4rIxJ_PRxkf1O- -2W_rOv_jd0Y57QHjQY6SUg335beHSSDk4sLOO-EyPvvTYUSqPcYR2lhhZjQFQ3v-ysQ-BvRgENZ0s9vBzEgo4xpawFlRLjyZt-uS6J2K2OI5QfqQu4OGwE36RBS2tDAVmp-7P5_qsk_rnJG-RhCZH3NJG0LT1PxRJj_6uKyeVrxOM_Wje9pCunyDrlsOkWerQsXP_0000]--></g></svg>