<?xml version="1.0" encoding="us-ascii" standalone="no"?><svg xmlns="http://www.w3.org/2000/svg" xmlns:xlink="http://www.w3.org/1999/xlink" contentStyleType="text/css" height="396px" preserveAspectRatio="none" style="width:902px;height:396px;background:#FFFFFF;" version="1.1" viewBox="0 0 902 396" width="902px" zoomAndPan="magnify"><defs/><g><!--class document--><g id="elem_document"><rect codeLine="4" fill="#F1F1F1" height="32" id="document" rx="2.5" ry="2.5" style="stroke:#181818;stroke-width:0.5;" width="196" x="397" y="7"/><ellipse cx="412" cy="23" fill="#ADD1B2" rx="11" ry="11" style="stroke:#181818;stroke-width:1.0;"/><path d="M414.7656,18.875 Q414.9219,18.6563 415.1094,18.5469 Q415.2969,18.4375 415.5156,18.4375 Q415.8906,18.4375 416.125,18.7031 Q416.3594,18.9531 416.3594,19.5625 L416.3594,21.0156 Q416.3594,21.625 416.125,21.8906 Q415.8906,22.1563 415.5156,22.1563 Q415.1719,22.1563 414.9688,21.9531 Q414.7656,21.7656 414.6563,21.25 Q414.6094,20.8906 414.4219,20.7031 Q414.0938,20.3281 413.4844,20.1094 Q412.875,19.8906 412.25,19.8906 Q411.4844,19.8906 410.8438,20.2188 Q410.2188,20.5469 409.7188,21.2969 Q409.2344,22.0469 409.2344,23.0781 L409.2344,24.1719 Q409.2344,25.4063 410.125,26.2344 Q411.0156,27.0469 412.6094,27.0469 Q413.5469,27.0469 414.2031,26.7969 Q414.5938,26.6406 415.0156,26.2031 Q415.2813,25.9375 415.4219,25.8594 Q415.5781,25.7813 415.7813,25.7813 Q416.1094,25.7813 416.3594,26.0469 Q416.625,26.2969 416.625,26.6406 Q416.625,26.9844 416.2813,27.3906 Q415.7813,27.9688 414.9844,28.2969 Q413.9063,28.75 412.6094,28.75 Q411.0938,28.75 409.8906,28.125 Q408.9063,27.625 408.2188,26.5625 Q407.5313,25.4844 407.5313,24.2031 L407.5313,23.0469 Q407.5313,21.7188 408.1406,20.5781 Q408.7656,19.4219 409.8594,18.8125 Q410.9531,18.1875 412.1875,18.1875 Q412.9219,18.1875 413.5625,18.3594 Q414.2188,18.5156 414.7656,18.875 Z " fill="#000000"/><text fill="#000000" font-family="sans-serif" font-size="14" lengthAdjust="spacing" textLength="164" x="426" y="28.7285">MedComConditionListBundle</text></g><!--class composition--><g id="elem_composition"><rect codeLine="5" fill="#F1F1F1" height="32" id="composition" rx="2.5" ry="2.5" style="stroke:#181818;stroke-width:0.5;" width="248" x="371" y="117"/><ellipse cx="386" cy="133" fill="#ADD1B2" rx="11" ry="11" style="stroke:#181818;stroke-width:1.0;"/><path d="M388.7656,128.875 Q388.9219,128.6563 389.1094,128.5469 Q389.2969,128.4375 389.5156,128.4375 Q389.8906,128.4375 390.125,128.7031 Q390.3594,128.9531 390.3594,129.5625 L390.3594,131.0156 Q390.3594,131.625 390.125,131.8906 Q389.8906,132.1563 389.5156,132.1563 Q389.1719,132.1563 388.9688,131.9531 Q388.7656,131.7656 388.6563,131.25 Q388.6094,130.8906 388.4219,130.7031 Q388.0938,130.3281 387.4844,130.1094 Q386.875,129.8906 386.25,129.8906 Q385.4844,129.8906 384.8438,130.2188 Q384.2188,130.5469 383.7188,131.2969 Q383.2344,132.0469 383.2344,133.0781 L383.2344,134.1719 Q383.2344,135.4063 384.125,136.2344 Q385.0156,137.0469 386.6094,137.0469 Q387.5469,137.0469 388.2031,136.7969 Q388.5938,136.6406 389.0156,136.2031 Q389.2813,135.9375 389.4219,135.8594 Q389.5781,135.7813 389.7813,135.7813 Q390.1094,135.7813 390.3594,136.0469 Q390.625,136.2969 390.625,136.6406 Q390.625,136.9844 390.2813,137.3906 Q389.7813,137.9688 388.9844,138.2969 Q387.9063,138.75 386.6094,138.75 Q385.0938,138.75 383.8906,138.125 Q382.9063,137.625 382.2188,136.5625 Q381.5313,135.4844 381.5313,134.2031 L381.5313,133.0469 Q381.5313,131.7188 382.1406,130.5781 Q382.7656,129.4219 383.8594,128.8125 Q384.9531,128.1875 386.1875,128.1875 Q386.9219,128.1875 387.5625,128.3594 Q388.2188,128.5156 388.7656,128.875 Z " fill="#000000"/><text fill="#000000" font-family="sans-serif" font-size="14" lengthAdjust="spacing" textLength="216" x="400" y="138.7285">MedComConditionListComposition</text></g><!--class organization--><g id="elem_organization"><rect codeLine="6" fill="#F1F1F1" height="42.7031" id="organization" rx="2.5" ry="2.5" style="stroke:#181818;stroke-width:0.5;" width="250" x="7" y="227"/><ellipse cx="22" cy="248.3516" fill="#ADD1B2" rx="11" ry="11" style="stroke:#181818;stroke-width:1.0;"/><path d="M24.7656,244.2266 Q24.9219,244.0078 25.1094,243.8984 Q25.2969,243.7891 25.5156,243.7891 Q25.8906,243.7891 26.125,244.0547 Q26.3594,244.3047 26.3594,244.9141 L26.3594,246.3672 Q26.3594,246.9766 26.125,247.2422 Q25.8906,247.5078 25.5156,247.5078 Q25.1719,247.5078 24.9688,247.3047 Q24.7656,247.1172 24.6563,246.6016 Q24.6094,246.2422 24.4219,246.0547 Q24.0938,245.6797 23.4844,245.4609 Q22.875,245.2422 22.25,245.2422 Q21.4844,245.2422 20.8438,245.5703 Q20.2188,245.8984 19.7188,246.6484 Q19.2344,247.3984 19.2344,248.4297 L19.2344,249.5234 Q19.2344,250.7578 20.125,251.5859 Q21.0156,252.3984 22.6094,252.3984 Q23.5469,252.3984 24.2031,252.1484 Q24.5938,251.9922 25.0156,251.5547 Q25.2813,251.2891 25.4219,251.2109 Q25.5781,251.1328 25.7813,251.1328 Q26.1094,251.1328 26.3594,251.3984 Q26.625,251.6484 26.625,251.9922 Q26.625,252.3359 26.2813,252.7422 Q25.7813,253.3203 24.9844,253.6484 Q23.9063,254.1016 22.6094,254.1016 Q21.0938,254.1016 19.8906,253.4766 Q18.9063,252.9766 18.2188,251.9141 Q17.5313,250.8359 17.5313,249.5547 L17.5313,248.3984 Q17.5313,247.0703 18.1406,245.9297 Q18.7656,244.7734 19.8594,244.1641 Q20.9531,243.5391 22.1875,243.5391 Q22.9219,243.5391 23.5625,243.7109 Q24.2188,243.8672 24.7656,244.2266 Z " fill="#000000"/><text fill="#000000" font-family="sans-serif" font-size="12" font-style="italic" lengthAdjust="spacing" textLength="162" x="64" y="244.457">&#171;MedComCoreOrganization&#187;</text><text fill="#000000" font-family="sans-serif" font-size="14" lengthAdjust="spacing" textLength="218" x="36" y="261.627">MedComConditionListOrganization</text></g><!--class practitioner--><g id="elem_practitioner"><rect codeLine="7" fill="#F1F1F1" height="42.7031" id="practitioner" rx="2.5" ry="2.5" style="stroke:#181818;stroke-width:0.5;" width="224" x="292" y="227"/><ellipse cx="307" cy="248.3516" fill="#ADD1B2" rx="11" ry="11" style="stroke:#181818;stroke-width:1.0;"/><path d="M309.7656,244.2266 Q309.9219,244.0078 310.1094,243.8984 Q310.2969,243.7891 310.5156,243.7891 Q310.8906,243.7891 311.125,244.0547 Q311.3594,244.3047 311.3594,244.9141 L311.3594,246.3672 Q311.3594,246.9766 311.125,247.2422 Q310.8906,247.5078 310.5156,247.5078 Q310.1719,247.5078 309.9688,247.3047 Q309.7656,247.1172 309.6563,246.6016 Q309.6094,246.2422 309.4219,246.0547 Q309.0938,245.6797 308.4844,245.4609 Q307.875,245.2422 307.25,245.2422 Q306.4844,245.2422 305.8438,245.5703 Q305.2188,245.8984 304.7188,246.6484 Q304.2344,247.3984 304.2344,248.4297 L304.2344,249.5234 Q304.2344,250.7578 305.125,251.5859 Q306.0156,252.3984 307.6094,252.3984 Q308.5469,252.3984 309.2031,252.1484 Q309.5938,251.9922 310.0156,251.5547 Q310.2813,251.2891 310.4219,251.2109 Q310.5781,251.1328 310.7813,251.1328 Q311.1094,251.1328 311.3594,251.3984 Q311.625,251.6484 311.625,251.9922 Q311.625,252.3359 311.2813,252.7422 Q310.7813,253.3203 309.9844,253.6484 Q308.9063,254.1016 307.6094,254.1016 Q306.0938,254.1016 304.8906,253.4766 Q303.9063,252.9766 303.2188,251.9141 Q302.5313,250.8359 302.5313,249.5547 L302.5313,248.3984 Q302.5313,247.0703 303.1406,245.9297 Q303.7656,244.7734 304.8594,244.1641 Q305.9531,243.5391 307.1875,243.5391 Q307.9219,243.5391 308.5625,243.7109 Q309.2188,243.8672 309.7656,244.2266 Z " fill="#000000"/><text fill="#000000" font-family="sans-serif" font-size="12" font-style="italic" lengthAdjust="spacing" textLength="153" x="340.5" y="244.457">&#171;MedComCorePractitioner&#187;</text><text fill="#000000" font-family="sans-serif" font-size="14" lengthAdjust="spacing" textLength="192" x="321" y="261.627">MedComDocumentPractitioner</text></g><!--class patient--><g id="elem_patient"><rect codeLine="8" fill="#F1F1F1" height="42.7031" id="patient" rx="2.5" ry="2.5" style="stroke:#181818;stroke-width:0.5;" width="196" x="551" y="348"/><ellipse cx="566" cy="369.3516" fill="#ADD1B2" rx="11" ry="11" style="stroke:#181818;stroke-width:1.0;"/><path d="M568.7656,365.2266 Q568.9219,365.0078 569.1094,364.8984 Q569.2969,364.7891 569.5156,364.7891 Q569.8906,364.7891 570.125,365.0547 Q570.3594,365.3047 570.3594,365.9141 L570.3594,367.3672 Q570.3594,367.9766 570.125,368.2422 Q569.8906,368.5078 569.5156,368.5078 Q569.1719,368.5078 568.9688,368.3047 Q568.7656,368.1172 568.6563,367.6016 Q568.6094,367.2422 568.4219,367.0547 Q568.0938,366.6797 567.4844,366.4609 Q566.875,366.2422 566.25,366.2422 Q565.4844,366.2422 564.8438,366.5703 Q564.2188,366.8984 563.7188,367.6484 Q563.2344,368.3984 563.2344,369.4297 L563.2344,370.5234 Q563.2344,371.7578 564.125,372.5859 Q565.0156,373.3984 566.6094,373.3984 Q567.5469,373.3984 568.2031,373.1484 Q568.5938,372.9922 569.0156,372.5547 Q569.2813,372.2891 569.4219,372.2109 Q569.5781,372.1328 569.7813,372.1328 Q570.1094,372.1328 570.3594,372.3984 Q570.625,372.6484 570.625,372.9922 Q570.625,373.3359 570.2813,373.7422 Q569.7813,374.3203 568.9844,374.6484 Q567.9063,375.1016 566.6094,375.1016 Q565.0938,375.1016 563.8906,374.4766 Q562.9063,373.9766 562.2188,372.9141 Q561.5313,371.8359 561.5313,370.5547 L561.5313,369.3984 Q561.5313,368.0703 562.1406,366.9297 Q562.7656,365.7734 563.8594,365.1641 Q564.9531,364.5391 566.1875,364.5391 Q566.9219,364.5391 567.5625,364.7109 Q568.2188,364.8672 568.7656,365.2266 Z " fill="#000000"/><text fill="#000000" font-family="sans-serif" font-size="12" font-style="italic" lengthAdjust="spacing" textLength="95" x="614.5" y="365.457">&#171;DkCorePatient&#187;</text><text fill="#000000" font-family="sans-serif" font-size="14" lengthAdjust="spacing" textLength="164" x="580" y="382.627">MedComDocumentPatient</text></g><!--class condition--><g id="elem_condition"><rect codeLine="9" fill="#F1F1F1" height="42.7031" id="condition" rx="2.5" ry="2.5" style="stroke:#181818;stroke-width:0.5;" width="230" x="665" y="227"/><ellipse cx="680" cy="248.3516" fill="#ADD1B2" rx="11" ry="11" style="stroke:#181818;stroke-width:1.0;"/><path d="M682.7656,244.2266 Q682.9219,244.0078 683.1094,243.8984 Q683.2969,243.7891 683.5156,243.7891 Q683.8906,243.7891 684.125,244.0547 Q684.3594,244.3047 684.3594,244.9141 L684.3594,246.3672 Q684.3594,246.9766 684.125,247.2422 Q683.8906,247.5078 683.5156,247.5078 Q683.1719,247.5078 682.9688,247.3047 Q682.7656,247.1172 682.6563,246.6016 Q682.6094,246.2422 682.4219,246.0547 Q682.0938,245.6797 681.4844,245.4609 Q680.875,245.2422 680.25,245.2422 Q679.4844,245.2422 678.8438,245.5703 Q678.2188,245.8984 677.7188,246.6484 Q677.2344,247.3984 677.2344,248.4297 L677.2344,249.5234 Q677.2344,250.7578 678.125,251.5859 Q679.0156,252.3984 680.6094,252.3984 Q681.5469,252.3984 682.2031,252.1484 Q682.5938,251.9922 683.0156,251.5547 Q683.2813,251.2891 683.4219,251.2109 Q683.5781,251.1328 683.7813,251.1328 Q684.1094,251.1328 684.3594,251.3984 Q684.625,251.6484 684.625,251.9922 Q684.625,252.3359 684.2813,252.7422 Q683.7813,253.3203 682.9844,253.6484 Q681.9063,254.1016 680.6094,254.1016 Q679.0938,254.1016 677.8906,253.4766 Q676.9063,252.9766 676.2188,251.9141 Q675.5313,250.8359 675.5313,249.5547 L675.5313,248.3984 Q675.5313,247.0703 676.1406,245.9297 Q676.7656,244.7734 677.8594,244.1641 Q678.9531,243.5391 680.1875,243.5391 Q680.9219,243.5391 681.5625,243.7109 Q682.2188,243.8672 682.7656,244.2266 Z " fill="#000000"/><text fill="#000000" font-family="sans-serif" font-size="12" font-style="italic" lengthAdjust="spacing" textLength="110" x="738" y="244.457">&#171;DkCoreCondition&#187;</text><text fill="#000000" font-family="sans-serif" font-size="14" lengthAdjust="spacing" textLength="198" x="694" y="261.627">MedComConditionListCondition</text></g><!--link document to composition--><g id="link_document_composition"><path codeLine="11" d="M495,39.02 C495,59.53 495,96.13 495,116.76 " fill="none" id="document-composition" style="stroke:#181818;stroke-width:1.0;"/><text fill="#000000" font-family="sans-serif" font-size="13" lengthAdjust="spacing" textLength="29" x="496" y="83.4951">entry</text></g><!--link composition to organization--><g id="link_composition_organization"><path codeLine="12" d="M446.8,149.07 C382.77,169.09 269.41,204.53 197.62,226.98 " fill="none" id="composition-organization" style="stroke:#181818;stroke-width:1.0;"/><text fill="#000000" font-family="sans-serif" font-size="13" lengthAdjust="spacing" textLength="36" x="348" y="193.4951">author</text></g><!--link composition to practitioner--><g id="link_composition_practitioner"><path codeLine="13" d="M482.73,149.31 C466.72,169.28 438.64,204.29 420.7,226.67 " fill="none" id="composition-practitioner" style="stroke:#181818;stroke-width:1.0;"/><text fill="#000000" font-family="sans-serif" font-size="13" lengthAdjust="spacing" textLength="36" x="459" y="193.4951">author</text></g><!--link composition to patient--><g id="link_composition_patient"><path codeLine="14" d="M504.87,149.03 C531.49,189.56 604.82,301.23 635.37,347.74 " fill="none" id="composition-patient" style="stroke:#181818;stroke-width:1.0;"/><text fill="#000000" font-family="sans-serif" font-size="13" lengthAdjust="spacing" textLength="42" x="584" y="253.9951">subject</text></g><!--link composition to condition--><g id="link_composition_condition"><path codeLine="15" d="M534.61,149.01 C557.31,157.67 586.3,168.82 612,179 C651.83,194.78 696.75,213.12 730.12,226.86 " fill="none" id="composition-condition" style="stroke:#181818;stroke-width:1.0;"/><text fill="#000000" font-family="sans-serif" font-size="13" lengthAdjust="spacing" textLength="77" x="655" y="193.4951">section.focus</text></g><!--link condition to patient--><g id="link_condition_patient"><path codeLine="16" d="M757.18,270.23 C733.28,291.94 695.96,325.84 672,347.61 " fill="none" id="condition-patient" style="stroke:#181818;stroke-width:1.0;"/><text fill="#000000" font-family="sans-serif" font-size="13" lengthAdjust="spacing" textLength="42" x="724" y="314.4951">subject</text></g><!--SRC=[VP1B4i8W44Jtd68gUps0PRbGbrfw1GAZeW8fFWizlICXaQZ92dfutK1Vb4H0tOG7QDGrEi-Ok7FleTgZt5YzjI9gD64TZRnZ1To3pACXkB56gg2isIaVI3VM9vaiugCdN0TtvaOzUM-pnG2MoyxYi2HNg_ylFZekGif6bzAQOZ18AydHDBgBbZQetLF6zfRyhVwsVZMIHUuZgpwZFwSK061ToJ2RbUt10YgQkaV5oYb1Www8uZ5ShFl11YLCOFcBHFXONr647-JpXpT416td9tgsVwFTsKWMUm40]--></g></svg>