<?xml version="1.0" encoding="UTF-8" standalone="no"?><svg xmlns="http://www.w3.org/2000/svg" xmlns:xlink="http://www.w3.org/1999/xlink" contentStyleType="text/css" height="640px" preserveAspectRatio="none" style="width:1186px;height:640px;background:#FFFFFF;" version="1.1" viewBox="0 0 1186 640" width="1186px" zoomAndPan="magnify"><defs/><g><!--MD5=[76410cda49e5d7b75c5bd06aa47a685f]
class message--><g id="elem_message"><rect codeLine="6" fill="#F1F1F1" height="42.7031" id="message" rx="2.5" ry="2.5" style="stroke:#181818;stroke-width:0.5;" width="289" x="250.5" y="7"/><ellipse cx="265.5" cy="28.3516" fill="#ADD1B2" rx="11" ry="11" style="stroke:#181818;stroke-width:1.0;"/><path d="M268.2656,24.2266 Q268.4219,24.0078 268.6094,23.8984 Q268.7969,23.7891 269.0156,23.7891 Q269.3906,23.7891 269.625,24.0547 Q269.8594,24.3047 269.8594,24.9141 L269.8594,26.3672 Q269.8594,26.9766 269.625,27.2422 Q269.3906,27.5078 269.0156,27.5078 Q268.6719,27.5078 268.4688,27.3047 Q268.2656,27.1172 268.1563,26.6016 Q268.1094,26.2422 267.9219,26.0547 Q267.5938,25.6797 266.9844,25.4609 Q266.375,25.2422 265.75,25.2422 Q264.9844,25.2422 264.3438,25.5703 Q263.7188,25.8984 263.2188,26.6484 Q262.7344,27.3984 262.7344,28.4297 L262.7344,29.5234 Q262.7344,30.7578 263.625,31.5859 Q264.5156,32.3984 266.1094,32.3984 Q267.0469,32.3984 267.7031,32.1484 Q268.0938,31.9922 268.5156,31.5547 Q268.7813,31.2891 268.9219,31.2109 Q269.0781,31.1328 269.2813,31.1328 Q269.6094,31.1328 269.8594,31.3984 Q270.125,31.6484 270.125,31.9922 Q270.125,32.3359 269.7813,32.7422 Q269.2813,33.3203 268.4844,33.6484 Q267.4063,34.1016 266.1094,34.1016 Q264.5938,34.1016 263.3906,33.4766 Q262.4063,32.9766 261.7188,31.9141 Q261.0313,30.8359 261.0313,29.5547 L261.0313,28.3984 Q261.0313,27.0703 261.6406,25.9297 Q262.2656,24.7734 263.3594,24.1641 Q264.4531,23.5391 265.6875,23.5391 Q266.4219,23.5391 267.0625,23.7109 Q267.7188,23.8672 268.2656,24.2266 Z " fill="#000000"/><text fill="#000000" font-family="sans-serif" font-size="12" font-style="italic" lengthAdjust="spacing" textLength="172" x="322" y="24.457">«MedComMessagingMessage»</text><text fill="#000000" font-family="sans-serif" font-size="14" lengthAdjust="spacing" textLength="257" x="279.5" y="41.627">MedComHomeCareObservationMessage</text></g><!--MD5=[8450471b43f9def5175bba9f4f9f2aaf]
class messageheader--><g id="elem_messageheader"><rect codeLine="7" fill="#F1F1F1" height="42.7031" id="messageheader" rx="2.5" ry="2.5" style="stroke:#181818;stroke-width:0.5;" width="335" x="198.5" y="238"/><ellipse cx="213.5" cy="259.3516" fill="#ADD1B2" rx="11" ry="11" style="stroke:#181818;stroke-width:1.0;"/><path d="M216.2656,255.2266 Q216.4219,255.0078 216.6094,254.8984 Q216.7969,254.7891 217.0156,254.7891 Q217.3906,254.7891 217.625,255.0547 Q217.8594,255.3047 217.8594,255.9141 L217.8594,257.3672 Q217.8594,257.9766 217.625,258.2422 Q217.3906,258.5078 217.0156,258.5078 Q216.6719,258.5078 216.4688,258.3047 Q216.2656,258.1172 216.1563,257.6016 Q216.1094,257.2422 215.9219,257.0547 Q215.5938,256.6797 214.9844,256.4609 Q214.375,256.2422 213.75,256.2422 Q212.9844,256.2422 212.3438,256.5703 Q211.7188,256.8984 211.2188,257.6484 Q210.7344,258.3984 210.7344,259.4297 L210.7344,260.5234 Q210.7344,261.7578 211.625,262.5859 Q212.5156,263.3984 214.1094,263.3984 Q215.0469,263.3984 215.7031,263.1484 Q216.0938,262.9922 216.5156,262.5547 Q216.7813,262.2891 216.9219,262.2109 Q217.0781,262.1328 217.2813,262.1328 Q217.6094,262.1328 217.8594,262.3984 Q218.125,262.6484 218.125,262.9922 Q218.125,263.3359 217.7813,263.7422 Q217.2813,264.3203 216.4844,264.6484 Q215.4063,265.1016 214.1094,265.1016 Q212.5938,265.1016 211.3906,264.4766 Q210.4063,263.9766 209.7188,262.9141 Q209.0313,261.8359 209.0313,260.5547 L209.0313,259.3984 Q209.0313,258.0703 209.6406,256.9297 Q210.2656,255.7734 211.3594,255.1641 Q212.4531,254.5391 213.6875,254.5391 Q214.4219,254.5391 215.0625,254.7109 Q215.7188,254.8672 216.2656,255.2266 Z " fill="#000000"/><text fill="#000000" font-family="sans-serif" font-size="12" font-style="italic" lengthAdjust="spacing" textLength="213" x="272.5" y="255.457">«MedComMessagingMessageHeader»</text><text fill="#000000" font-family="sans-serif" font-size="14" lengthAdjust="spacing" textLength="303" x="227.5" y="272.627">MedComHomeCareObservationMessageHeader</text></g><!--MD5=[134450525739527685064faa304c6b67]
class provenance--><g id="elem_provenance"><rect codeLine="8" fill="#F1F1F1" height="32" id="provenance" rx="2.5" ry="2.5" style="stroke:#181818;stroke-width:0.5;" width="232" x="432" y="128"/><ellipse cx="447" cy="144" fill="#ADD1B2" rx="11" ry="11" style="stroke:#181818;stroke-width:1.0;"/><path d="M449.7656,139.875 Q449.9219,139.6563 450.1094,139.5469 Q450.2969,139.4375 450.5156,139.4375 Q450.8906,139.4375 451.125,139.7031 Q451.3594,139.9531 451.3594,140.5625 L451.3594,142.0156 Q451.3594,142.625 451.125,142.8906 Q450.8906,143.1563 450.5156,143.1563 Q450.1719,143.1563 449.9688,142.9531 Q449.7656,142.7656 449.6563,142.25 Q449.6094,141.8906 449.4219,141.7031 Q449.0938,141.3281 448.4844,141.1094 Q447.875,140.8906 447.25,140.8906 Q446.4844,140.8906 445.8438,141.2188 Q445.2188,141.5469 444.7188,142.2969 Q444.2344,143.0469 444.2344,144.0781 L444.2344,145.1719 Q444.2344,146.4063 445.125,147.2344 Q446.0156,148.0469 447.6094,148.0469 Q448.5469,148.0469 449.2031,147.7969 Q449.5938,147.6406 450.0156,147.2031 Q450.2813,146.9375 450.4219,146.8594 Q450.5781,146.7813 450.7813,146.7813 Q451.1094,146.7813 451.3594,147.0469 Q451.625,147.2969 451.625,147.6406 Q451.625,147.9844 451.2813,148.3906 Q450.7813,148.9688 449.9844,149.2969 Q448.9063,149.75 447.6094,149.75 Q446.0938,149.75 444.8906,149.125 Q443.9063,148.625 443.2188,147.5625 Q442.5313,146.4844 442.5313,145.2031 L442.5313,144.0469 Q442.5313,142.7188 443.1406,141.5781 Q443.7656,140.4219 444.8594,139.8125 Q445.9531,139.1875 447.1875,139.1875 Q447.9219,139.1875 448.5625,139.3594 Q449.2188,139.5156 449.7656,139.875 Z " fill="#000000"/><text fill="#000000" font-family="sans-serif" font-size="14" lengthAdjust="spacing" textLength="200" x="461" y="149.7285">MedComMessagingProvenance</text></g><!--MD5=[d4169e35ccdaba65b2d0699c27e25023]
class observationRequester--><g id="elem_observationRequester"><rect codeLine="9" fill="#F1F1F1" height="42.7031" id="observationRequester" rx="2.5" ry="2.5" style="stroke:#181818;stroke-width:0.5;" width="234" x="7" y="359"/><ellipse cx="22" cy="380.3516" fill="#ADD1B2" rx="11" ry="11" style="stroke:#181818;stroke-width:1.0;"/><path d="M24.7656,376.2266 Q24.9219,376.0078 25.1094,375.8984 Q25.2969,375.7891 25.5156,375.7891 Q25.8906,375.7891 26.125,376.0547 Q26.3594,376.3047 26.3594,376.9141 L26.3594,378.3672 Q26.3594,378.9766 26.125,379.2422 Q25.8906,379.5078 25.5156,379.5078 Q25.1719,379.5078 24.9688,379.3047 Q24.7656,379.1172 24.6563,378.6016 Q24.6094,378.2422 24.4219,378.0547 Q24.0938,377.6797 23.4844,377.4609 Q22.875,377.2422 22.25,377.2422 Q21.4844,377.2422 20.8438,377.5703 Q20.2188,377.8984 19.7188,378.6484 Q19.2344,379.3984 19.2344,380.4297 L19.2344,381.5234 Q19.2344,382.7578 20.125,383.5859 Q21.0156,384.3984 22.6094,384.3984 Q23.5469,384.3984 24.2031,384.1484 Q24.5938,383.9922 25.0156,383.5547 Q25.2813,383.2891 25.4219,383.2109 Q25.5781,383.1328 25.7813,383.1328 Q26.1094,383.1328 26.3594,383.3984 Q26.625,383.6484 26.625,383.9922 Q26.625,384.3359 26.2813,384.7422 Q25.7813,385.3203 24.9844,385.6484 Q23.9063,386.1016 22.6094,386.1016 Q21.0938,386.1016 19.8906,385.4766 Q18.9063,384.9766 18.2188,383.9141 Q17.5313,382.8359 17.5313,381.5547 L17.5313,380.3984 Q17.5313,379.0703 18.1406,377.9297 Q18.7656,376.7734 19.8594,376.1641 Q20.9531,375.5391 22.1875,375.5391 Q22.9219,375.5391 23.5625,375.7109 Q24.2188,375.8672 24.7656,376.2266 Z " fill="#000000"/><text fill="#000000" font-family="sans-serif" font-size="12" font-style="italic" lengthAdjust="spacing" textLength="194" x="40" y="376.457">«MedComMessagingOrganization»</text><text fill="#000000" font-family="sans-serif" font-size="14" lengthAdjust="spacing" textLength="202" x="36" y="393.627">MedComRequesterOrganization</text></g><!--MD5=[86fcfc7a3ddeef2443f03e9b03bcacd4]
class patient--><g id="elem_patient"><rect codeLine="10" fill="#F1F1F1" height="32" id="patient" rx="2.5" ry="2.5" style="stroke:#181818;stroke-width:0.5;" width="163" x="347.5" y="485.5"/><ellipse cx="362.5" cy="501.5" fill="#ADD1B2" rx="11" ry="11" style="stroke:#181818;stroke-width:1.0;"/><path d="M365.2656,497.375 Q365.4219,497.1563 365.6094,497.0469 Q365.7969,496.9375 366.0156,496.9375 Q366.3906,496.9375 366.625,497.2031 Q366.8594,497.4531 366.8594,498.0625 L366.8594,499.5156 Q366.8594,500.125 366.625,500.3906 Q366.3906,500.6563 366.0156,500.6563 Q365.6719,500.6563 365.4688,500.4531 Q365.2656,500.2656 365.1563,499.75 Q365.1094,499.3906 364.9219,499.2031 Q364.5938,498.8281 363.9844,498.6094 Q363.375,498.3906 362.75,498.3906 Q361.9844,498.3906 361.3438,498.7188 Q360.7188,499.0469 360.2188,499.7969 Q359.7344,500.5469 359.7344,501.5781 L359.7344,502.6719 Q359.7344,503.9063 360.625,504.7344 Q361.5156,505.5469 363.1094,505.5469 Q364.0469,505.5469 364.7031,505.2969 Q365.0938,505.1406 365.5156,504.7031 Q365.7813,504.4375 365.9219,504.3594 Q366.0781,504.2813 366.2813,504.2813 Q366.6094,504.2813 366.8594,504.5469 Q367.125,504.7969 367.125,505.1406 Q367.125,505.4844 366.7813,505.8906 Q366.2813,506.4688 365.4844,506.7969 Q364.4063,507.25 363.1094,507.25 Q361.5938,507.25 360.3906,506.625 Q359.4063,506.125 358.7188,505.0625 Q358.0313,503.9844 358.0313,502.7031 L358.0313,501.5469 Q358.0313,500.2188 358.6406,499.0781 Q359.2656,497.9219 360.3594,497.3125 Q361.4531,496.6875 362.6875,496.6875 Q363.4219,496.6875 364.0625,496.8594 Q364.7188,497.0156 365.2656,497.375 Z " fill="#000000"/><text fill="#000000" font-family="sans-serif" font-size="14" lengthAdjust="spacing" textLength="131" x="376.5" y="507.2285">MedComCorePatient</text></g><!--MD5=[d64d5c7357c79f774106f79272da7625]
class organization--><g id="elem_organization"><rect codeLine="11" fill="#F1F1F1" height="32" id="organization" rx="2.5" ry="2.5" style="stroke:#181818;stroke-width:0.5;" width="226" x="534" y="601"/><ellipse cx="549" cy="617" fill="#ADD1B2" rx="11" ry="11" style="stroke:#181818;stroke-width:1.0;"/><path d="M551.7656,612.875 Q551.9219,612.6563 552.1094,612.5469 Q552.2969,612.4375 552.5156,612.4375 Q552.8906,612.4375 553.125,612.7031 Q553.3594,612.9531 553.3594,613.5625 L553.3594,615.0156 Q553.3594,615.625 553.125,615.8906 Q552.8906,616.1563 552.5156,616.1563 Q552.1719,616.1563 551.9688,615.9531 Q551.7656,615.7656 551.6563,615.25 Q551.6094,614.8906 551.4219,614.7031 Q551.0938,614.3281 550.4844,614.1094 Q549.875,613.8906 549.25,613.8906 Q548.4844,613.8906 547.8438,614.2188 Q547.2188,614.5469 546.7188,615.2969 Q546.2344,616.0469 546.2344,617.0781 L546.2344,618.1719 Q546.2344,619.4063 547.125,620.2344 Q548.0156,621.0469 549.6094,621.0469 Q550.5469,621.0469 551.2031,620.7969 Q551.5938,620.6406 552.0156,620.2031 Q552.2813,619.9375 552.4219,619.8594 Q552.5781,619.7813 552.7813,619.7813 Q553.1094,619.7813 553.3594,620.0469 Q553.625,620.2969 553.625,620.6406 Q553.625,620.9844 553.2813,621.3906 Q552.7813,621.9688 551.9844,622.2969 Q550.9063,622.75 549.6094,622.75 Q548.0938,622.75 546.8906,622.125 Q545.9063,621.625 545.2188,620.5625 Q544.5313,619.4844 544.5313,618.2031 L544.5313,617.0469 Q544.5313,615.7188 545.1406,614.5781 Q545.7656,613.4219 546.8594,612.8125 Q547.9531,612.1875 549.1875,612.1875 Q549.9219,612.1875 550.5625,612.3594 Q551.2188,612.5156 551.7656,612.875 Z " fill="#000000"/><text fill="#000000" font-family="sans-serif" font-size="14" lengthAdjust="spacing" textLength="194" x="563" y="622.7285">MedComProducerOrganization</text></g><!--MD5=[e983e22c3f4ba1480d19570c62e75e9c]
class diagnosticReport--><g id="elem_diagnosticReport"><rect codeLine="12" fill="#F1F1F1" height="42.7031" id="diagnosticReport" rx="2.5" ry="2.5" style="stroke:#181818;stroke-width:0.5;" width="264" x="449" y="359"/><ellipse cx="464" cy="380.3516" fill="#ADD1B2" rx="11" ry="11" style="stroke:#181818;stroke-width:1.0;"/><path d="M466.7656,376.2266 Q466.9219,376.0078 467.1094,375.8984 Q467.2969,375.7891 467.5156,375.7891 Q467.8906,375.7891 468.125,376.0547 Q468.3594,376.3047 468.3594,376.9141 L468.3594,378.3672 Q468.3594,378.9766 468.125,379.2422 Q467.8906,379.5078 467.5156,379.5078 Q467.1719,379.5078 466.9688,379.3047 Q466.7656,379.1172 466.6563,378.6016 Q466.6094,378.2422 466.4219,378.0547 Q466.0938,377.6797 465.4844,377.4609 Q464.875,377.2422 464.25,377.2422 Q463.4844,377.2422 462.8438,377.5703 Q462.2188,377.8984 461.7188,378.6484 Q461.2344,379.3984 461.2344,380.4297 L461.2344,381.5234 Q461.2344,382.7578 462.125,383.5859 Q463.0156,384.3984 464.6094,384.3984 Q465.5469,384.3984 466.2031,384.1484 Q466.5938,383.9922 467.0156,383.5547 Q467.2813,383.2891 467.4219,383.2109 Q467.5781,383.1328 467.7813,383.1328 Q468.1094,383.1328 468.3594,383.3984 Q468.625,383.6484 468.625,383.9922 Q468.625,384.3359 468.2813,384.7422 Q467.7813,385.3203 466.9844,385.6484 Q465.9063,386.1016 464.6094,386.1016 Q463.0938,386.1016 461.8906,385.4766 Q460.9063,384.9766 460.2188,383.9141 Q459.5313,382.8359 459.5313,381.5547 L459.5313,380.3984 Q459.5313,379.0703 460.1406,377.9297 Q460.7656,376.7734 461.8594,376.1641 Q462.9531,375.5391 464.1875,375.5391 Q464.9219,375.5391 465.5625,375.7109 Q466.2188,375.8672 466.7656,376.2266 Z " fill="#000000"/><text fill="#000000" font-family="sans-serif" font-size="12" font-style="italic" lengthAdjust="spacing" textLength="186" x="501" y="376.457">«MedComCoreDiagnosticReport»</text><text fill="#000000" font-family="sans-serif" font-size="14" lengthAdjust="spacing" textLength="232" x="478" y="393.627">MedComHomeCareDiagnosticReport</text></g><!--MD5=[a96585abe38044d07723f840ff465c16]
class coreobservation--><g id="elem_coreobservation"><rect codeLine="13" fill="#F1F1F1" height="42.7031" id="coreobservation" rx="2.5" ry="2.5" style="stroke:#181818;stroke-width:0.5;" width="232" x="672" y="480"/><ellipse cx="687" cy="501.3516" fill="#ADD1B2" rx="11" ry="11" style="stroke:#181818;stroke-width:1.0;"/><path d="M689.7656,497.2266 Q689.9219,497.0078 690.1094,496.8984 Q690.2969,496.7891 690.5156,496.7891 Q690.8906,496.7891 691.125,497.0547 Q691.3594,497.3047 691.3594,497.9141 L691.3594,499.3672 Q691.3594,499.9766 691.125,500.2422 Q690.8906,500.5078 690.5156,500.5078 Q690.1719,500.5078 689.9688,500.3047 Q689.7656,500.1172 689.6563,499.6016 Q689.6094,499.2422 689.4219,499.0547 Q689.0938,498.6797 688.4844,498.4609 Q687.875,498.2422 687.25,498.2422 Q686.4844,498.2422 685.8438,498.5703 Q685.2188,498.8984 684.7188,499.6484 Q684.2344,500.3984 684.2344,501.4297 L684.2344,502.5234 Q684.2344,503.7578 685.125,504.5859 Q686.0156,505.3984 687.6094,505.3984 Q688.5469,505.3984 689.2031,505.1484 Q689.5938,504.9922 690.0156,504.5547 Q690.2813,504.2891 690.4219,504.2109 Q690.5781,504.1328 690.7813,504.1328 Q691.1094,504.1328 691.3594,504.3984 Q691.625,504.6484 691.625,504.9922 Q691.625,505.3359 691.2813,505.7422 Q690.7813,506.3203 689.9844,506.6484 Q688.9063,507.1016 687.6094,507.1016 Q686.0938,507.1016 684.8906,506.4766 Q683.9063,505.9766 683.2188,504.9141 Q682.5313,503.8359 682.5313,502.5547 L682.5313,501.3984 Q682.5313,500.0703 683.1406,498.9297 Q683.7656,497.7734 684.8594,497.1641 Q685.9531,496.5391 687.1875,496.5391 Q687.9219,496.5391 688.5625,496.7109 Q689.2188,496.8672 689.7656,497.2266 Z " fill="#000000"/><text fill="#000000" font-family="sans-serif" font-size="12" font-style="italic" lengthAdjust="spacing" textLength="158" x="722" y="497.457">«MedComCoreObservation»</text><text fill="#000000" font-family="sans-serif" font-size="14" lengthAdjust="spacing" textLength="200" x="701" y="514.627">MedComHomeCareObservation</text></g><!--MD5=[aa898b20e385a7003938c33fd5d2e29b]
class media--><g id="elem_media"><rect codeLine="14" fill="#F1F1F1" height="32" id="media" rx="2.5" ry="2.5" style="stroke:#181818;stroke-width:0.5;" width="126" x="939" y="485.5"/><ellipse cx="954" cy="501.5" fill="#ADD1B2" rx="11" ry="11" style="stroke:#181818;stroke-width:1.0;"/><path d="M956.7656,497.375 Q956.9219,497.1563 957.1094,497.0469 Q957.2969,496.9375 957.5156,496.9375 Q957.8906,496.9375 958.125,497.2031 Q958.3594,497.4531 958.3594,498.0625 L958.3594,499.5156 Q958.3594,500.125 958.125,500.3906 Q957.8906,500.6563 957.5156,500.6563 Q957.1719,500.6563 956.9688,500.4531 Q956.7656,500.2656 956.6563,499.75 Q956.6094,499.3906 956.4219,499.2031 Q956.0938,498.8281 955.4844,498.6094 Q954.875,498.3906 954.25,498.3906 Q953.4844,498.3906 952.8438,498.7188 Q952.2188,499.0469 951.7188,499.7969 Q951.2344,500.5469 951.2344,501.5781 L951.2344,502.6719 Q951.2344,503.9063 952.125,504.7344 Q953.0156,505.5469 954.6094,505.5469 Q955.5469,505.5469 956.2031,505.2969 Q956.5938,505.1406 957.0156,504.7031 Q957.2813,504.4375 957.4219,504.3594 Q957.5781,504.2813 957.7813,504.2813 Q958.1094,504.2813 958.3594,504.5469 Q958.625,504.7969 958.625,505.1406 Q958.625,505.4844 958.2813,505.8906 Q957.7813,506.4688 956.9844,506.7969 Q955.9063,507.25 954.6094,507.25 Q953.0938,507.25 951.8906,506.625 Q950.9063,506.125 950.2188,505.0625 Q949.5313,503.9844 949.5313,502.7031 L949.5313,501.5469 Q949.5313,500.2188 950.1406,499.0781 Q950.7656,497.9219 951.8594,497.3125 Q952.9531,496.6875 954.1875,496.6875 Q954.9219,496.6875 955.5625,496.8594 Q956.2188,497.0156 956.7656,497.375 Z " fill="#000000"/><text fill="#000000" font-family="sans-serif" font-size="14" lengthAdjust="spacing" textLength="94" x="968" y="507.2285">MedComMedia</text></g><!--MD5=[81a74f5327845c2ce954842e4f46c391]
link message to messageheader--><g id="link_message_messageheader"><path codeLine="16" d="M392.38,50.23 C387.06,92.21 375.03,187.17 369.24,232.92 " fill="none" id="message-to-messageheader" style="stroke:#181818;stroke-width:1.0;"/><polygon fill="#181818" points="368.6,237.99,373.7004,229.5647,369.229,233.0297,365.7639,228.5583,368.6,237.99" style="stroke:#181818;stroke-width:1.0;"/><text fill="#000000" font-family="sans-serif" font-size="13" lengthAdjust="spacing" textLength="29" x="384" y="149.4951">entry</text></g><!--MD5=[e1e9985a6f350ec0650597362e14de10]
link messageheader to diagnosticReport--><g id="link_messageheader_diagnosticReport"><path codeLine="17" d="M403.45,281.23 C441.25,302.15 499.53,334.41 538.91,356.21 " fill="none" id="messageheader-to-diagnosticReport" style="stroke:#181818;stroke-width:1.0;"/><polygon fill="#181818" points="543.62,358.81,537.6755,350.9574,539.2432,356.3927,533.8079,357.9604,543.62,358.81" style="stroke:#181818;stroke-width:1.0;"/><text fill="#000000" font-family="sans-serif" font-size="13" lengthAdjust="spacing" textLength="31" x="488" y="325.4951">focus</text></g><!--MD5=[2c58979e8399b1ce29faa9d249424686]
link messageheader to organization--><g id="link_messageheader_organization"><path codeLine="18" d="M354.25,281.04 C328.65,328.78 274.44,448.81 330,523 C356.28,558.1 464.24,584.44 546.94,599.97 " fill="none" id="messageheader-to-organization" style="stroke:#181818;stroke-width:1.0;"/><polygon fill="#181818" points="552.35,600.98,544.2335,595.4013,547.4343,600.0655,542.7702,603.2663,552.35,600.98" style="stroke:#181818;stroke-width:1.0;"/><text fill="#000000" font-family="sans-serif" font-size="13" lengthAdjust="spacing" textLength="39" x="308" y="446.4951">sender</text></g><!--MD5=[81f298224060e516a9ea14ff98c71ca4]
link message to provenance--><g id="link_message_provenance"><path codeLine="19" d="M422.71,50.05 C451.32,71.28 495.55,104.09 523.09,124.52 " fill="none" id="message-to-provenance" style="stroke:#181818;stroke-width:1.0;"/><polygon fill="#181818" points="527.36,127.69,522.5257,119.1093,523.348,124.706,517.7513,125.5284,527.36,127.69" style="stroke:#181818;stroke-width:1.0;"/><text fill="#000000" font-family="sans-serif" font-size="13" lengthAdjust="spacing" textLength="29" x="487" y="94.4951">entry</text></g><!--MD5=[1aa5b919a36df47450e1a6a7cdb64b45]
link provenance to messageheader--><g id="link_provenance_messageheader"><path codeLine="20" d="M523.83,160.07 C492.98,179.31 439.3,212.79 403.21,235.29 " fill="none" id="provenance-to-messageheader" style="stroke:#181818;stroke-width:1.0;"/><polygon fill="#181818" points="398.9,237.98,408.6541,236.6168,403.144,235.3364,404.4243,229.8264,398.9,237.98" style="stroke:#181818;stroke-width:1.0;"/><text fill="#000000" font-family="sans-serif" font-size="13" lengthAdjust="spacing" textLength="33" x="475" y="204.4951">target</text></g><!--MD5=[df78789b268a0a149f5d23d4e89f3481]
link provenance to organization--><g id="link_provenance_organization"><path codeLine="21" d="M664.04,144.96 C830.69,148.1 1118,166.81 1118,258.5 C1118,258.5 1118,258.5 1118,502.5 C1118,574.9 904.98,601.26 765.46,610.75 " fill="none" id="provenance-to-organization" style="stroke:#181818;stroke-width:1.0;"/><polygon fill="#181818" points="760.12,611.11,769.3636,614.5095,765.1092,610.7812,768.8375,606.5268,760.12,611.11" style="stroke:#181818;stroke-width:1.0;"/><text fill="#000000" font-family="sans-serif" font-size="13" lengthAdjust="spacing" textLength="59" x="1119" y="385.9951">agent.who</text></g><!--MD5=[56c2f2cfb24c8eacf57cb1d46166a77b]
link messageheader to observationRequester--><g id="link_messageheader_observationRequester"><path codeLine="22" d="M295.19,281.05 C271.35,289.08 244.99,299.22 222,311 C197.61,323.5 172.32,341.32 153.53,355.66 " fill="none" id="messageheader-to-observationRequester" style="stroke:#181818;stroke-width:1.0;"/><polygon fill="#181818" points="149.39,358.85,158.9617,356.5298,153.3521,355.8001,154.0818,350.1905,149.39,358.85" style="stroke:#181818;stroke-width:1.0;"/><text fill="#000000" font-family="sans-serif" font-size="13" lengthAdjust="spacing" textLength="44" x="223" y="325.4951">receiver</text></g><!--MD5=[47496e079e743b6704f8ffb47327a521]
link diagnosticReport to organization--><g id="link_diagnosticReport_organization"><path codeLine="23" d="M581.15,402.14 C581.86,430.14 585.04,481.43 598,523 C606.41,549.98 622.58,578.36 634.04,596.56 " fill="none" id="diagnosticReport-to-organization" style="stroke:#181818;stroke-width:1.0;"/><polygon fill="#181818" points="636.85,600.96,635.4013,591.2183,634.1693,596.7393,628.6482,595.5074,636.85,600.96" style="stroke:#181818;stroke-width:1.0;"/><text fill="#000000" font-family="sans-serif" font-size="13" lengthAdjust="spacing" textLength="54" x="599" y="506.9951">performer</text></g><!--MD5=[3693126f5e4882afa6398591cd5ccdc9]
link diagnosticReport to patient--><g id="link_diagnosticReport_patient"><path codeLine="24" d="M551.37,402.17 C538.77,411.14 524.02,421.89 511,432 C489.93,448.37 466.66,467.96 450.3,481.99 " fill="none" id="diagnosticReport-to-patient" style="stroke:#181818;stroke-width:1.0;"/><polygon fill="#181818" points="446.3,485.44,455.7312,482.6023,450.0902,482.179,450.5136,476.538,446.3,485.44" style="stroke:#181818;stroke-width:1.0;"/><text fill="#000000" font-family="sans-serif" font-size="13" lengthAdjust="spacing" textLength="42" x="512" y="446.4951">subject</text></g><!--MD5=[1f197c178a815dc5a1dfbb48fdfadc47]
link diagnosticReport to coreobservation--><g id="link_diagnosticReport_coreobservation"><path codeLine="25" d="M617.06,402.23 C653.45,423.15 709.56,455.41 747.48,477.21 " fill="none" id="diagnosticReport-to-coreobservation" style="stroke:#181818;stroke-width:1.0;"/><polygon fill="#181818" points="752.01,479.81,746.2057,471.8533,747.6767,477.3155,742.2145,478.7865,752.01,479.81" style="stroke:#181818;stroke-width:1.0;"/><text fill="#000000" font-family="sans-serif" font-size="13" lengthAdjust="spacing" textLength="32" x="698" y="446.4951">result</text></g><!--MD5=[4fa38e8dd9333e36d2da3b18b4be9862]
link diagnosticReport to media--><g id="link_diagnosticReport_media"><path codeLine="26" d="M653.85,402.09 C736.06,425.33 868.16,462.67 943.8,484.05 " fill="none" id="diagnosticReport-to-media" style="stroke:#181818;stroke-width:1.0;"/><polygon fill="#181818" points="948.7,485.43,941.1229,479.1381,943.8876,484.0734,938.9523,486.838,948.7,485.43" style="stroke:#181818;stroke-width:1.0;"/><text fill="#000000" font-family="sans-serif" font-size="13" lengthAdjust="spacing" textLength="65" x="818" y="446.4951">attachment</text></g><!--MD5=[c1b5b919a9c1cbeb103e231fc0557f2f]
link coreobservation to organization--><g id="link_coreobservation_organization"><path codeLine="27" d="M762.47,523.05 C736.1,544.28 695.33,577.09 669.96,597.52 " fill="none" id="coreobservation-to-organization" style="stroke:#181818;stroke-width:1.0;"/><polygon fill="#181818" points="666.02,600.69,675.5432,598.1785,669.9202,597.5613,670.5373,591.9382,666.02,600.69" style="stroke:#181818;stroke-width:1.0;"/><text fill="#000000" font-family="sans-serif" font-size="13" lengthAdjust="spacing" textLength="54" x="723" y="567.4951">performer</text></g><!--MD5=[91583284d6199c6e119d3809e8afcf7c]
@startuml HomeCareObservationMessage

hide empty members

top to bottom direction

class "MedComHomeCareObservationMessage" as message <<MedComMessagingMessage>>
class "MedComHomeCareObservationMessageHeader" as messageheader <<MedComMessagingMessageHeader>>
class "MedComMessagingProvenance" as provenance
class "MedComRequesterOrganization" as observationRequester <<MedComMessagingOrganization>>
class "MedComCorePatient" as patient
class "MedComProducerOrganization" as organization 
class "MedComHomeCareDiagnosticReport" as diagnosticReport <<MedComCoreDiagnosticReport>>
class "MedComHomeCareObservation" as coreobservation <<MedComCoreObservation>>
class "MedComMedia" as media

message - -> messageheader : "entry"
messageheader - -> diagnosticReport : "focus"
messageheader - -> organization : "sender"
message - -> provenance : "entry"
provenance - -> messageheader : "target" 
provenance - -> organization : "agent.who"
messageheader - -> observationRequester : "receiver"
diagnosticReport - -> organization: "performer"
diagnosticReport - -> patient : "subject"
diagnosticReport - -> coreobservation : "result"
diagnosticReport- -> media : "attachment"
coreobservation - -> organization:"performer"

@enduml

PlantUML version 1.2022.7(Mon Aug 22 19:01:30 CEST 2022)
(GPL source distribution)
Java Runtime: Java(TM) SE Runtime Environment
JVM: Java HotSpot(TM) 64-Bit Server VM
Default Encoding: Cp1252
Language: da
Country: DK
--></g></svg>